<?xml version="1.0" standalone="no"?>
<!DOCTYPE svg PUBLIC "-//W3C//DTD SVG 1.1//EN" "http://www.w3.org/Graphics/SVG/1.1/DTD/svg11.dtd" >
<svg>
<metadata>
Created by FontForge 20090622 at Sun Nov  3 19:02:05 2019
 By deploy user
Copyright 2018-2019 Mikhail Sharanda
</metadata>
<defs>
<font id="Manrope3-Bold" horiz-adv-x="280" >
  <font-face 
    font-family="Manrope3 Bold"
    font-weight="700"
    font-stretch="normal"
    units-per-em="960"
    panose-1="0 0 8 0 0 0 0 0 0 0"
    ascent="768"
    descent="-192"
    x-height="540"
    cap-height="720"
    bbox="-30 -287 1099 997"
    underline-thickness="50"
    underline-position="-50"
    unicode-range="U+0020-U+FB02"
  />
<missing-glyph horiz-adv-x="740" 
d="M640 720v-13h-540v13h540zM640 665v-16h-540v16h540zM640 610v-18h-540v18h540zM640 554v-21h-540v21h540zM640 498v-22h-540v22h540zM640 443v-24h-540v24h540zM640 388v-28h-540v28h540zM640 333v-30h-540v30h540zM640 278v-33h-540v33h540zM640 222v-35h-540v35h540z
M640 167v-37h-540v37h540zM640 112v-40h-540v40h540zM640 0h-540v57h540v-57z" />
    <glyph glyph-name="arrowleft" unicode="&#x3c;&#x2d;" horiz-adv-x="1012" 
d="M872 363v-95h-570l135 -135l-57 -58l-240 240l240 240l57 -58l-135 -135z" />
    <glyph glyph-name="arrowright" unicode="&#x2d;&#x3e;" horiz-adv-x="1012" 
d="M632 555l240 -240l-240 -240l-57 58l135 135h-570v95l570 -1l-135 135z" />
    <glyph glyph-name="parenleft_greater_parenright.liga" unicode="&#x28;&#x3e;&#x29;" horiz-adv-x="1070" 
d="M535 -135q101 0 192.5 39t158 105.5t105.5 158t39 192.5t-39 192.5t-105.5 158t-158 105.5t-192.5 39t-192.5 -39t-158 -105.5t-105.5 -158t-39 -192.5t39 -192.5t105.5 -158t158 -105.5t192.5 -39zM535 -22q-159 0 -270.5 111.5t-111.5 270.5t111.5 270.5t270.5 111.5
t270.5 -111.5t111.5 -270.5t-111.5 -270.5t-270.5 -111.5zM465 535l210 -175l-210 -175v350z" />
    <glyph glyph-name="parenleft_c_parenright.liga" unicode="&#x28;c&#x29;" horiz-adv-x="906" 
d="M453 -68q172 0 292.5 121t120.5 292t-120.5 292t-292.5 121q-171 0 -292 -121t-121 -292t121 -292t292 -121zM453 45q-125 0 -212.5 87.5t-87.5 212.5t87.5 212.5t212.5 87.5t212.5 -87.5t87.5 -212.5t-87.5 -212.5t-212.5 -87.5zM642 428l-92 -24q-11 32 -33 49
q-23 19 -56 19q-48 0 -76 -36q-24 -32 -24 -91q0 -58 24 -90q25 -36 76 -36q37 0 58 17q17 15 29 45l94 -20q-20 -63 -66 -95q-48 -34 -115 -34q-98 0 -149 66q-49 62 -49 147q0 90 49 146q55 67 151 67q60 0 104 -26q59 -36 75 -104z" />
    <glyph glyph-name="space_less_three_space.liga" unicode="&#x20;&#x3c;&#x33;&#x20;" horiz-adv-x="1203" 
d="M704 555q82 0 141 -64q58 -61 58 -146q0 -84 -58 -145l-175 -185q-28 -30 -69 -30q-40 0 -68 30l-175 185q-58 63 -58 144q0 85 58 147q60 64 141 64q53 0 102 -30q50 30 103 30zM704 461q-51 0 -103 -56q-52 56 -102 56q-40 0 -72 -35q-32 -32 -32 -80q0 -49 32 -81
l174 -185l176 185q31 32 31 81q0 48 -31 80q-33 35 -73 35z" />
    <glyph glyph-name="fl" unicode="fl" horiz-adv-x="689" 
d="M489 735h120v-735h-120v446h-251v-446h-121v446h-87v94h87v9q0 31 1 47.5t9.5 44.5t25.5 47q19 22 47.5 33t46 12.5t46.5 1.5h8h67v-98h-62q-68 0 -68 -62v-35h251v195z" />
    <glyph glyph-name="f_f" unicode="ff" horiz-adv-x="715" 
d="M642 637q-34 0 -51 -16.5t-17 -45.5v-35h131v-94h-131v-446h-120v446h-216v-446h-121v446h-87v94h87v9q0 31 1 47.5t9.5 44.5t25.5 47q19 22 47.5 33t46 12.5t46.5 1.5h8h67v-98h-62q-68 0 -68 -62v-35h216v9q0 32 0.5 47.5t9 44t25.5 47.5q21 23 53 34.5t46.5 12
t48.5 0.5h68v-98h-63z" />
    <glyph glyph-name="f_f_l" unicode="ffl" horiz-adv-x="1026" 
d="M826 735h120v-735h-120v446h-252v-446h-120v446h-216v-446h-121v446h-87v94h87v9q0 31 1 47.5t9.5 44.5t25.5 47q19 22 47.5 33t46 12.5t46.5 1.5h8h67v-98h-62q-68 0 -68 -62v-35h216v9q0 32 0.5 47.5t9 44t25.5 47.5q21 23 53 34.5t46.5 12t48.5 0.5h68v-98h-63
q-34 0 -51 -16.5t-17 -45.5v-35h252v195z" />
    <glyph glyph-name="t_t" unicode="tt" horiz-adv-x="806" 
d="M601 446v-219q0 -79 11 -97q17 -29 59 -33q39 -3 89 4v-101q-68 -18 -148 -4q-73 12 -108 68q-7 10 -11.5 22.5t-7 22t-3.5 27t-1 25.5v30.5v29.5v225h-253v-219q0 -79 11 -97q17 -29 59 -33q39 -3 89 4v-101q-68 -18 -148 -4q-38 6 -63.5 21.5t-45.5 46.5
q-7 10 -11 22.5t-6.5 22.5t-3.5 27t-1 25.5v30v29.5v225h-98v94h98v150h120v-150h253v150h120v-150h159v-94h-159z" />
    <glyph glyph-name=".notdef" horiz-adv-x="740" 
d="M640 720v-13h-540v13h540zM640 665v-16h-540v16h540zM640 610v-18h-540v18h540zM640 554v-21h-540v21h540zM640 498v-22h-540v22h540zM640 443v-24h-540v24h540zM640 388v-28h-540v28h540zM640 333v-30h-540v30h540zM640 278v-33h-540v33h540zM640 222v-35h-540v35h540z
M640 167v-37h-540v37h540zM640 112v-40h-540v40h540zM640 0h-540v57h540v-57z" />
    <glyph glyph-name=".null" horiz-adv-x="500" 
 />
    <glyph glyph-name="nonmarkingreturn" horiz-adv-x="685" 
 />
    <glyph glyph-name="space" unicode=" " horiz-adv-x="200" 
 />
    <glyph glyph-name="exclam" unicode="!" horiz-adv-x="360" 
d="M120 720v-540h120v540h-120zM120 111h120v-111h-120v111z" />
    <glyph glyph-name="quotedbl" unicode="&#x22;" horiz-adv-x="467" 
d="M60 720h120v-180h-120v180zM247 720h120v-180h-120v180z" />
    <glyph glyph-name="numbersign" unicode="#" horiz-adv-x="931" 
d="M841 427h-181l-32 -117h181l-30 -114h-181l-52 -195h-117l52 195h-123l-52 -195h-117l52 195h-181l30 114h182l31 117h-182l31 113h181l49 180h117l-49 -180h123l49 180h117l-49 -180h181zM511 310l32 117h-123l-31 -117h122z" />
    <glyph glyph-name="dollar" unicode="$" horiz-adv-x="600" 
d="M485 322q55 -55 55 -135q0 -49 -26.5 -95.5t-72.5 -72.5q-34 -20 -81 -28v-91h-120v92q-95 23 -140 97q-40 60 -40 130h122q0 -38 21 -65q36 -54 95 -54q51 0 82 24q33 24 33 67q0 39 -38 64q-27 19 -84.5 42t-76.5 34q-71 34 -107 84q-36 48 -36 113q0 41 17.5 81.5
t47.5 67.5q44 40 104 52v90h120v-92q76 -21 120 -81q45 -60 46 -132h-127q0 31 -19 62q-34 45 -83 45q-46 0 -75 -32q-24 -23 -24 -60q0 -27 13 -46q17 -28 90 -59q115 -49 146 -70q20 -14 38 -32z" />
    <glyph glyph-name="percent" unicode="%" horiz-adv-x="900" 
d="M240 375q-74 0 -127 52.5t-53 127.5q0 73 54 126.5t126 53.5q74 0 127 -52.5t53 -127.5t-53 -127.5t-127 -52.5zM170 0l-80 80l640 640l80 -81zM240 478q32 0 54.5 23t22.5 54t-22.5 54t-54.5 23t-54.5 -23t-22.5 -54t22.5 -54t54.5 -23zM660 -15q-74 0 -127 52.5
t-53 127.5q0 73 54 126.5t126 53.5q74 0 127 -52.5t53 -127.5t-53 -127.5t-127 -52.5zM660 88q32 0 55 23t23 54t-23 54t-55 23q-31 0 -54 -23t-23 -54t23 -54t54 -23z" />
    <glyph glyph-name="ampersand" unicode="&#x26;" horiz-adv-x="668" 
d="M576 378v-131q0 -63 -7 -94l89 -82l-77 -83l-70 66q-50 -47 -117 -60q-39 -9 -85 -9q-133 0 -203 74q-53 58 -56 149q0 90 50 149q16 20 45 38q-31 35 -45 66t-14 71q0 63 34 113t92 72q42 16 103 16q108 0 165 -60q38 -38 52 -89l-119 -26q-8 23 -25 39q-27 24 -76 24
q-32 0 -57 -12q-48 -24 -48 -78q0 -36 33 -71q17 -18 49 -47l180 -167q1 12 1 44v88h106zM424 136l-190 175q-25 -10 -42 -30q-20 -26 -20 -67q0 -40 25 -72q35 -42 116 -42q36 0 57 7q33 11 54 29z" />
    <glyph glyph-name="quotesingle" unicode="'" horiz-adv-x="260" 
d="M60 720h120v-180h-120v180z" />
    <glyph glyph-name="parenleft" unicode="(" horiz-adv-x="453" 
d="M412 784l-89 66q-87 -101 -136 -240.5t-47 -279.5q-2 -140 47 -279.5t136 -240.5l89 66q-161 194 -163 454q2 260 163 454z" />
    <glyph glyph-name="parenright" unicode=")" horiz-adv-x="453" 
d="M41 784q161 -192 163 -454q-2 -260 -163 -454l89 -66q87 101 136 240.5t47 279.5q2 141 -46.5 280t-136.5 240z" />
    <glyph glyph-name="asterisk" unicode="*" horiz-adv-x="465" 
d="M405 545l-114 -30l75 -89l-86 -62l-63 97l-62 -97l-87 62l75 89l-113 30l33 102l108 -45l-7 118h107l-8 -118l109 45z" />
    <glyph glyph-name="plus" unicode="+" horiz-adv-x="572" 
d="M512 408v-95h-178v-179h-95v179h-179v95h179v178h95v-178h178z" />
    <glyph glyph-name="comma" unicode="," horiz-adv-x="303" 
d="M183 -5q0 -67 -31 -99.5t-92 -22.5l7 51q33 -2 47.5 19t9.5 57h-64v128h123v-133z" />
    <glyph glyph-name="hyphen" unicode="-" horiz-adv-x="420" 
d="M60 363h300v-95h-300v95z" />
    <glyph glyph-name="period" unicode="." horiz-adv-x="303" 
d="M90 123h123v-123h-123v123z" />
    <glyph glyph-name="slash" unicode="/" horiz-adv-x="433" 
d="M252 720h121l-192 -720h-121z" />
    <glyph glyph-name="zero" unicode="0" horiz-adv-x="658" 
d="M329 -14q125 0 198 84q35 41 48 85.5t13 105.5v199q0 64 -12.5 107.5t-48.5 84.5q-76 86 -198 83q-58 1 -110.5 -21t-87.5 -62q-36 -44 -48.5 -87t-12.5 -105v-199q0 -62 13 -105t48 -86q72 -84 198 -84zM329 621q36 1 68.5 -17.5t49.5 -49.5q18 -33 18 -94v-199
q0 -68 -21 -98q-18 -29 -49 -46.5t-66 -16.5q-34 -1 -64.5 16t-49.5 46q-22 31 -22 99v199q0 63 19 95q18 30 50 48.5t67 17.5z" />
    <glyph glyph-name="one" unicode="1" horiz-adv-x="438" 
d="M195 720h123v-720h-123v589l-135 -83v133z" />
    <glyph glyph-name="two" unicode="2" horiz-adv-x="598" 
d="M54 497q0 112 81 182q64 56 171 56q111 0 182 -77q60 -63 60 -163q0 -50 -15.5 -87.5t-38 -62.5t-70.5 -67l-185 -163h309v-114h-495v105l308 275q63 56 63 115q0 52 -31 86q-33 39 -90 39q-51 0 -85 -31q-41 -38 -41 -93h-123z" />
    <glyph glyph-name="three" unicode="3" horiz-adv-x="582" 
d="M476 373q48 -64 46 -148q-5 -111 -79 -177q-67 -59 -167 -61q-94 -3 -167 62q-50 42 -69 109l117 32q10 -36 34 -57q36 -33 85 -33q51 2 84 33q39 36 39 92q0 57 -37 93q-34 33 -87 33q-30 0 -62 -17l-55 95l207 177h-297v114h442v-114l-163 -156q77 -16 129 -77z" />
    <glyph glyph-name="four" unicode="4" horiz-adv-x="609" 
d="M491 232h68v-113h-68v-119h-122v119h-319v113l231 488h137l-230 -488h181v187h122v-187z" />
    <glyph glyph-name="five" unicode="5" horiz-adv-x="586" 
d="M97 720h391v-113h-285l-10 -178q51 33 112 33q88 0 157 -58q76 -68 74 -177q-2 -103 -75 -173q-68 -65 -173 -67q-99 -3 -171 66q-48 43 -67 110l116 31q10 -35 34 -58q38 -35 88 -35q52 0 90 36q37 37 37 90q0 54 -39 91q-35 33 -88 35q-68 1 -110 -47l-103 33z" />
    <glyph glyph-name="six" unicode="6" horiz-adv-x="622" 
d="M523 658l-87 -85q-42 48 -103 48q-39 0 -72.5 -20.5t-49.5 -54.5q-18 -32 -18 -89v-50q62 56 144 56q90 0 159 -60q74 -71 72 -176q0 -101 -75 -173q-72 -70 -174 -67q-102 -3 -174 69q-43 42 -59 90.5t-16 117.5v193q0 121 63 194q70 81 200 83q114 2 190 -76zM319 100
q54 0 91 39q36 34 36 88q0 55 -37 90q-39 37 -89 37q-53 0 -91 -38q-36 -36 -36 -89q0 -54 36 -88q37 -37 90 -39z" />
    <glyph glyph-name="seven" unicode="7" horiz-adv-x="534" 
d="M107 0l247 606h-314v114h444v-114l-247 -606h-130z" />
    <glyph glyph-name="eight" unicode="8" horiz-adv-x="612" 
d="M79 531q3 105 76 159q59 45 151 45q93 0 151 -45q76 -56 76 -159q0 -52 -25 -94q-12 -24 -37 -50q36 -30 56 -72q27 -49 25 -102q-2 -111 -77 -172q-66 -56 -169 -56q-104 0 -169 56q-77 65 -77 172q0 56 25 102q20 41 57 72q-27 27 -38 50q-27 44 -25 94zM306 622
q-47 -2 -73 -24q-27 -23 -27 -67q0 -45 27 -66q27 -23 73 -23q47 0 73 23q26 22 26 66q2 42 -26 67q-29 26 -73 24zM306 327q-56 0 -87 -30q-32 -29 -32 -84t32 -84q33 -30 87 -30q56 0 87 30q32 31 32 84t-32 84q-30 30 -87 30z" />
    <glyph glyph-name="nine" unicode="9" horiz-adv-x="622" 
d="M99 62l87 84q42 -48 103 -48q39 0 72.5 20.5t49.5 54.5q18 32 18 89v50q-61 -55 -144 -55q-91 0 -159 60q-74 69 -72 175q2 103 75 173q72 70 174 67q102 3 174 -69q43 -42 59 -90.5t16 -117.5v-193q0 -121 -63 -194q-70 -81 -200 -83q-114 -2 -190 77zM303 619
q-54 2 -91 -39q-36 -34 -36 -88q0 -51 37 -90q39 -37 89 -37q53 0 91 38q36 36 36 89t-36 89q-35 36 -90 38z" />
    <glyph glyph-name="colon" unicode=":" horiz-adv-x="343" 
d="M111 475h123v-123h-123v123zM110 188h123v-123h-123v123z" />
    <glyph glyph-name="semicolon" unicode=";" horiz-adv-x="343" 
d="M110 540h123v-123h-123v123zM233 -5q0 -67 -31 -99.5t-92 -22.5l7 51q33 -2 47.5 19t9.5 57h-64v128h123v-133z" />
    <glyph glyph-name="less" unicode="&#x3c;" horiz-adv-x="637" 
d="M380 75l-240 240l240 240l57 -58l-182 -182l182 -182z" />
    <glyph glyph-name="equal" unicode="=" horiz-adv-x="750" 
d="M120 502v-95h510v95h-510zM120 313v-95h510v95h-510z" />
    <glyph glyph-name="greater" unicode="&#x3e;" horiz-adv-x="638" 
d="M257 75l-57 58l182 182l-182 182l57 58l240 -240z" />
    <glyph glyph-name="question" unicode="?" horiz-adv-x="553" 
d="M503 534q0 -91 -78 -172l-29.5 -28.5t-29 -29t-19.5 -24.5q-13 -22 -16 -37t-3 -48h-127q0 76 29 127q12 23 27.5 39.5t40.5 36.5t44 40q34 38 34 93q0 34 -16 56q-27 34 -83 34q-47 0 -72 -22q-30 -24 -28 -68h-127q12 109 86 161q57 42 136 42q125 0 185 -73
q46 -52 46 -127zM201 0v133h127v-133h-127z" />
    <glyph glyph-name="at" unicode="@" horiz-adv-x="916" 
d="M836 270q-3 -121 -66 -175q-36 -33 -88 -33q-49 0 -86 24q-24 14 -37 35q-46 -35 -111 -35q-72 0 -121 43q-57 50 -60 141q3 90 60 141q52 43 123 43q59 0 102 -31v17h74l-1 -213q0 -36 13 -53q12 -17 40 -17q22 0 35 18q23 30 21 95q2 104 -46 175q-36 52 -97 78.5
t-132 26.5q-110 0 -185 -57q-49 -36 -72 -98.5t-21 -135.5q3 -114 60 -180q77 -90 220 -90q65 0 120 24l32 -90q-71 -28 -156 -28q-191 0 -293 123q-81 93 -84 238q-4 94 31.5 179t104.5 136q97 74 235 74q213 0 317 -144q65 -94 68 -231zM536 270q0 35 -11 56
q-19 33 -67 33q-39 1 -65 -21q-26 -26 -24 -68q-2 -43 24 -67q23 -22 62 -22q51 0 70 33q11 21 11 56z" />
    <glyph glyph-name="A" unicode="A" horiz-adv-x="671" 
d="M527 0l-50 156h-284l-49 -156h-124l227 720h177l227 -720h-124zM229 269h212l-107 334z" />
    <glyph glyph-name="B" unicode="B" horiz-adv-x="639" 
d="M547 346q25 -23 40 -58.5t14 -72.5q0 -103 -59 -159q-32 -32 -70 -44t-103 -12h-299v720h285q95 0 152 -54q59 -55 61 -147q1 -36 -12.5 -68t-36.5 -52q-8 -8 -26 -20q30 -12 54 -33zM354 607h-162v-174h162q46 0 73 30q18 21 18 58q0 38 -24 62t-67 24zM450 144
q29 28 29 71q0 45 -25 73q-29 32 -81 32h-181v-206h178q49 0 80 30z" />
    <glyph glyph-name="C" unicode="C" horiz-adv-x="731" 
d="M577 242l118 -29q-29 -97 -98 -156q-83 -72 -220 -72q-164 0 -255 117q-82 106 -82 258q0 162 81 259q94 116 256 116q136 0 219 -73q77 -66 104 -174l-121 -17q-12 41 -36 74q-57 74 -158 76q-51 1 -95 -19t-71 -57q-54 -67 -52 -185q2 -121 52 -185q54 -74 166 -76
q100 -2 158 76q21 28 34 67z" />
    <glyph glyph-name="D" unicode="D" horiz-adv-x="700" 
d="M652 360q0 141 -70 241t-195 115q-35 4 -88 4h-229v-720h229q53 0 88 4q125 15 195 115t70 241zM525 360q0 -93 -36.5 -159t-109.5 -82q-23 -5 -80 -5h-106v492h106q57 0 80 -5q73 -16 109.5 -82t36.5 -159z" />
    <glyph glyph-name="E" unicode="E" horiz-adv-x="585" 
d="M535 607h-345v-178h285v-112h-285v-204h345v-113h-465v720h465v-113z" />
    <glyph glyph-name="F" unicode="F" horiz-adv-x="523" 
d="M503 600h-313v-180h253v-120h-253v-300h-120v720h433v-120z" />
    <glyph glyph-name="G" unicode="G" horiz-adv-x="755" 
d="M714 378l1 -38q0 -147 -85 -248q-90 -107 -253 -107q-166 0 -256 118q-81 108 -81 257q0 160 81 259q94 116 256 116q138 0 219 -73q74 -61 99 -162l-131 -20q-16 50 -47 80q-51 51 -132 51q-106 0 -160 -74q-47 -61 -49 -177q2 -115 49 -177q26 -36 69 -55t91 -18
q79 -2 132 51q48 46 57 122h-150v95h290z" />
    <glyph glyph-name="H" unicode="H" horiz-adv-x="722" 
d="M531 720h121v-720h-121v304h-341v-304h-120v720h120v-303h341v303z" />
    <glyph glyph-name="I" unicode="I" 
d="M80 720h120v-720h-120v720z" />
    <glyph glyph-name="J" unicode="J" horiz-adv-x="501" 
d="M421 720h-122v-485q0 -67 -10 -89q-9 -23 -32.5 -35.5t-47.5 -12.5q-32 0 -58.5 22t-31.5 53l-119 -29q21 -72 77 -115.5t132 -43.5q128 0 188 98q5 9 9 18.5t6.5 16t4 18t2.5 16t1.5 19t0.5 18v22.5v24v485z" />
    <glyph glyph-name="K" unicode="K" horiz-adv-x="649" 
d="M70 0v720h122v-334l288 334h148l-310 -353l331 -367h-153l-304 336v-336h-122z" />
    <glyph glyph-name="L" unicode="L" horiz-adv-x="533" 
d="M200 720h-120v-720h438v113h-318v607z" />
    <glyph glyph-name="M" unicode="M" horiz-adv-x="855" 
d="M785 720v-720h-113v462l-220 -462h-48l-221 461v-461h-113v720h108l250 -510l249 510h108z" />
    <glyph glyph-name="N" unicode="N" horiz-adv-x="718" 
d="M192 720l334 -507v507h122v-720h-122l-334 508v-508h-122v720h122z" />
    <glyph glyph-name="O" unicode="O" horiz-adv-x="769" 
d="M385 -15q-158 0 -251.5 104.5t-93.5 270.5t93.5 271t251.5 104q159 -1 250 -102.5t94 -272.5q-2 -170 -94.5 -272.5t-249.5 -102.5zM385 99q106 -1 161.5 70t55.5 191q0 121 -55.5 190.5t-161.5 70.5q-105 1 -162.5 -71t-55.5 -190q1 -122 56 -191t162 -70z" />
    <glyph glyph-name="P" unicode="P" horiz-adv-x="639" 
d="M425 716q91 -14 137.5 -75.5t46.5 -154.5q0 -92 -47 -154t-137 -77q-25 -4 -57 -4h-178v-251h-120v720h298q32 0 57 -4zM408 369q41 10 60 43.5t19 73.5t-19 73t-60 43q-18 5 -45 5h-173v-243h173q27 0 45 5z" />
    <glyph glyph-name="Q" unicode="Q" horiz-adv-x="769" 
d="M729 360q-1 -148 -73 -247l52 -52l-74 -76l-55 55q-81 -55 -194 -55q-158 0 -251.5 104.5t-93.5 270.5t93.5 271t251.5 104q159 -1 250 -102.5t94 -272.5zM385 99q62 -1 109 25l-66 66l76 75l64 -64q34 64 34 159q0 121 -55.5 190.5t-161.5 70.5q-105 1 -162.5 -71
t-55.5 -190q1 -122 56 -191t162 -70z" />
    <glyph glyph-name="R" unicode="R" horiz-adv-x="640" 
d="M484 0l-122 251h-172v-251h-120v720h298q32 0 57 -4q91 -14 137.5 -75.5t46.5 -154.5q0 -74 -31 -130t-91 -83l133 -273h-136zM190 607v-243h173q27 0 45 5q41 10 60 43.5t19 73.5t-19 73t-60 43q-18 5 -45 5h-173z" />
    <glyph glyph-name="S" unicode="S" horiz-adv-x="641" 
d="M605 523l-129 -22q-12 59 -65 94q-43 26 -92 26q-51 1 -90 -21q-44 -28 -44 -69q0 -29 17 -46q21 -22 87 -42l126 -34q111 -32 148 -72q27 -29 37.5 -61t10.5 -79q0 -83 -75 -146q-77 -66 -208 -66q-149 0 -236 95q-50 57 -62 133l125 19q13 -49 44 -80q54 -54 133 -54
q74 0 115 32q38 29 38 70q0 35 -24 56q-20 18 -73 34l-134 39q-39 11 -58.5 17.5t-44.5 19.5t-42 29q-51 48 -51 132q0 100 84 159q68 49 179 49q90 -2 152 -36q106 -59 132 -176z" />
    <glyph glyph-name="T" unicode="T" horiz-adv-x="607" 
d="M597 720v-113h-233v-607h-121v607h-233v113h587z" />
    <glyph glyph-name="U" unicode="U" horiz-adv-x="720" 
d="M650 720v-453q0 -35 -8 -73q-23 -98 -99 -153.5t-182 -55.5q-109 0 -185.5 55t-97.5 153q-8 32 -8 74v452l122 1v-442q0 -36 6 -61q14 -53 59.5 -86t103.5 -33t103.5 36t58.5 90q5 21 5 54v442h122z" />
    <glyph glyph-name="V" unicode="V" horiz-adv-x="641" 
d="M232 0l-227 720h124l190 -603l193 603h124l-227 -720h-177z" />
    <glyph glyph-name="W" unicode="W" horiz-adv-x="976" 
d="M838 720h126l-210 -720h-119l-148 512l-146 -512h-119l-210 720h126l143 -520l143 519l126 1l144 -520z" />
    <glyph glyph-name="X" unicode="X" horiz-adv-x="656" 
d="M403 364l243 -364h-148l-169 262l-171 -262h-148l244 364l-237 356h147l165 -253l162 253h149z" />
    <glyph glyph-name="Y" unicode="Y" horiz-adv-x="612" 
d="M471 720h141l-245 -425v-295h-122v295l-245 425h141l165 -287z" />
    <glyph glyph-name="Z" unicode="Z" horiz-adv-x="664" 
d="M261 114h344v-114h-555v17l355 590h-330v113h539v-17z" />
    <glyph glyph-name="bracketleft" unicode="[" horiz-adv-x="424" 
d="M359 790h-112v-895h112v-107h-219v1109h219v-107z" />
    <glyph glyph-name="backslash" unicode="\" horiz-adv-x="433" 
d="M181 720l192 -720h-121l-192 720h121z" />
    <glyph glyph-name="bracketright" unicode="]" horiz-adv-x="424" 
d="M284 897v-1109h-218v107h111v895h-111v107h218z" />
    <glyph glyph-name="asciicircum" unicode="^" horiz-adv-x="680" 
d="M105 495l240 240l241 -240l-58 -57l-183 182l-182 -182z" />
    <glyph glyph-name="underscore" unicode="_" horiz-adv-x="660" 
d="M0 -27h660v-95h-660v95z" />
    <glyph glyph-name="a" unicode="a" horiz-adv-x="576" 
d="M516 0h-105v71q-36 -45 -80.5 -65.5t-112.5 -20.5q-81 0 -129.5 46t-48.5 122q0 108 104 149q17 7 38.5 13t37 9.5t45 8.5l41 7t47.5 7t44 6q-4 47 -34 69.5t-75 22.5q-91 0 -120 -75l-109 34q27 67 87.5 109t145.5 42q170 0 213 -135q11 -39 11 -95v-325zM378 152
q19 35 19 102q-114 -17 -164 -30q-75 -22 -75 -74q0 -29 23 -49.5t64 -20.5q42 0 78 20t55 52z" />
    <glyph glyph-name="b" unicode="b" horiz-adv-x="617" 
d="M326 555q113 0 182 -80t69 -205q0 -123 -68 -204t-179 -81q-91 0 -153 54v-39h-107v720h121v-207q56 42 135 42zM312 93q67 0 102 49t35 128q0 78 -36 127.5t-105 49.5q-66 0 -98.5 -47.5t-32.5 -129.5q0 -177 135 -177z" />
    <glyph glyph-name="c" unicode="c" horiz-adv-x="576" 
d="M545 383l-120 -33q-13 43 -45.5 67.5t-74.5 24.5q-68 0 -102.5 -47t-34.5 -125q0 -79 35 -125.5t102 -46.5q88 0 117 85l123 -27q-25 -82 -87.5 -126.5t-152.5 -44.5q-122 0 -193 79.5t-72 205.5q1 126 73 205.5t193 79.5q92 0 155.5 -46t83.5 -126z" />
    <glyph glyph-name="d" unicode="d" horiz-adv-x="617" 
d="M426 720h121v-720h-106v40q-61 -55 -154 -55q-111 0 -179 81t-68 204q0 125 69 205t182 80q79 0 135 -42v207zM305 93q135 0 135 177q0 82 -32.5 129.5t-98.5 47.5q-69 0 -105 -49.5t-36 -127.5q0 -79 35 -128t102 -49z" />
    <glyph glyph-name="e" unicode="e" horiz-adv-x="602" 
d="M170 236q7 -65 42.5 -101.5t96.5 -36.5q90 0 126 77l119 -36q-29 -71 -95 -112.5t-144 -41.5q-124 0 -199.5 78t-75.5 201q0 131 73.5 211t195.5 80q129 0 195 -88t56 -231h-390zM309 450q-114 0 -136 -119h265q-8 60 -38 89.5t-91 29.5z" />
    <glyph glyph-name="f" unicode="f" horiz-adv-x="378" 
d="M306 637q-68 0 -68 -62v-35h130v-94h-130v-446h-121v446h-87v94h87v9q0 31 1 47.5t9.5 44.5t25.5 47q19 22 47.5 33t46 12.5t46.5 1.5h8h67v-98h-62z" />
    <glyph glyph-name="g" unicode="g" horiz-adv-x="616" 
d="M440 540h106v-566q0 -42 -7 -76q-18 -76 -82.5 -114t-159.5 -38q-68 0 -125.5 31t-89.5 85l112 55q29 -57 104 -57q58 0 93.5 30t34.5 86v52q-57 -43 -139 -43q-111 0 -179 81t-68 204q0 125 69 205t182 80q90 0 149 -53v38zM305 93q135 0 135 177q0 82 -32.5 129.5
t-98.5 47.5q-69 0 -105 -49.5t-36 -127.5q0 -79 35 -128t102 -49z" />
    <glyph glyph-name="h" unicode="h" horiz-adv-x="626" 
d="M500 500q22 -20 36.5 -47.5t20.5 -62.5t7.5 -61.5t1.5 -67.5v-261h-122v256q0 115 -43 155q-34 32 -90 31q-43 -2 -71 -25q-32 -25 -43 -75q-6 -31 -6 -107v-235h-121v720h107v-240q6 8 11 13q50 57 138 61q110 7 174 -54z" />
    <glyph glyph-name="i" unicode="i" 
d="M80 734h120v-110h-120v110zM80 540v-540h120v540h-120z" />
    <glyph glyph-name="j" unicode="j" horiz-adv-x="288" 
d="M96 718h121v-110h-121v110zM16 -127h-26v-113h66q86 0 125 40q17 18 25.5 41.5t9.5 40t1 53.5v605h-121v-575q0 -53 -19 -72q-20 -20 -61 -20z" />
    <glyph glyph-name="k" unicode="k" horiz-adv-x="539" 
d="M70 0l1 720h122v-440l197 260h151l-210 -270l228 -270h-160l-206 260v-260h-123z" />
    <glyph glyph-name="l" unicode="l" 
d="M80 0h120v735h-120v-735z" />
    <glyph glyph-name="m" unicode="m" horiz-adv-x="903" 
d="M788 506q34 -34 44.5 -74t10.5 -102l-1 -330h-121v322q0 65 -31 95q-27 29 -71 29q-48 0 -76 -34q-26 -30 -26 -80v-2v-330h-122v322q0 65 -30 95q-27 29 -72 29q-47 0 -76 -34q-26 -30 -26 -80v-332h-121v540h107v-57q59 70 154 70q85 0 132 -47q18 -18 29 -38
q28 40 71.5 62.5t93.5 22.5q85 0 131 -47z" />
    <glyph glyph-name="n" unicode="n" horiz-adv-x="626" 
d="M501 500q29 -27 44.5 -70.5t18 -78t2.5 -90.5v-261h-122v256q0 116 -43 155q-33 33 -90 31q-42 -2 -71 -25q-33 -27 -42 -75q-6 -26 -6 -106v-1v-235h-121v540h106v-61q4 4 12 14q49 57 138 61q110 7 174 -54z" />
    <glyph glyph-name="o" unicode="o" horiz-adv-x="618" 
d="M309 -15q-121 0 -195 79.5t-74 205.5q0 127 74.5 206t194.5 79q121 0 195 -79.5t74 -205.5t-74.5 -205.5t-194.5 -79.5zM451 270q0 80 -36.5 126t-105.5 46q-70 0 -105.5 -46t-35.5 -126t36 -126t105 -46t105.5 47t36.5 125z" />
    <glyph glyph-name="p" unicode="p" horiz-adv-x="617" 
d="M326 555q113 0 182 -80t69 -205q0 -123 -68 -204t-179 -81q-82 0 -139 43v-268h-121v780h107v-38q59 53 149 53zM312 93q67 0 102 49t35 128q0 78 -36 127.5t-105 49.5q-66 0 -98.5 -47.5t-32.5 -129.5q0 -177 135 -177z" />
    <glyph glyph-name="q" unicode="q" horiz-adv-x="617" 
d="M441 540h106v-780h-121v268q-57 -43 -139 -43q-111 0 -179 81t-68 204q0 125 69 205t182 80q90 0 150 -54v39zM305 93q135 0 135 177q0 82 -32.5 129.5t-98.5 47.5q-69 0 -105 -49.5t-36 -127.5q0 -79 35 -128t102 -49z" />
    <glyph glyph-name="r" unicode="r" horiz-adv-x="399" 
d="M231 512q60 42 143 28v-112q-59 17 -112 -13q-71 -41 -71 -147v-268h-121v540h107v-87q20 35 54 59z" />
    <glyph glyph-name="s" unicode="s" horiz-adv-x="542" 
d="M497 396l-123 -22q-4 34 -32 54.5t-70 22.5q-40 2 -67 -13t-27 -39q0 -21 14.5 -33.5t45.5 -22.5q9 -3 96 -26q86 -22 126.5 -58t40.5 -101q0 -81 -60.5 -127t-155.5 -46q-102 0 -166 42.5t-79 129.5l123 19q9 -42 43 -64t82 -22q39 0 64.5 16t25.5 46q0 25 -18 38.5
t-54 23.5q-109 30 -128 36q-56 16 -88 52t-32 91q0 77 61.5 119.5t149.5 42.5q92 0 155 -41.5t73 -117.5z" />
    <glyph glyph-name="t" unicode="t" horiz-adv-x="433" 
d="M228 446v-219q0 -79 11 -97q17 -29 59 -33q39 -3 89 4v-101q-68 -18 -148 -4q-38 6 -63.5 21.5t-45.5 46.5q-7 10 -11 22.5t-6.5 22.5t-3.5 27t-1 25.5v30v29.5v225h-98v94h98v150h120v-150h159v-94h-159z" />
    <glyph glyph-name="u" unicode="u" horiz-adv-x="626" 
d="M434 540h122v-540h-107v61q-4 -4 -12 -14q-49 -57 -138 -61q-109 -7 -174 54q-29 27 -44.5 70.5t-18 78t-2.5 90.5v261h122v-256q0 -116 43 -155q33 -33 90 -31q40 1 71 25q33 27 42 75q6 26 6 106v1v235z" />
    <glyph glyph-name="v" unicode="v" horiz-adv-x="553" 
d="M412 540h121l-196 -540h-121l-196 540h121l136 -391z" />
    <glyph glyph-name="w" unicode="w" horiz-adv-x="802" 
d="M664 540h118l-165 -540h-101l-115 372l-122 -372h-94l-165 541l119 -1l106 -346l106 346h101l107 -346z" />
    <glyph glyph-name="x" unicode="x" horiz-adv-x="554" 
d="M539 540l-193 -267l198 -273h-142l-124 179l-126 -179h-142l198 273l-194 267h142l122 -173l119 173h142z" />
    <glyph glyph-name="y" unicode="y" horiz-adv-x="559" 
d="M434 540h121l-301 -780l-113 1l88 239l1 4l-218 536h125l151 -385z" />
    <glyph glyph-name="z" unicode="z" horiz-adv-x="534" 
d="M481 106v-106h-461v17l286 417h-257v106h445v-17l-285 -417h272z" />
    <glyph glyph-name="braceleft" unicode="{" horiz-adv-x="449" 
d="M408 -212v113h-59q-15 0 -25 10t-10 25v292q0 48 -27 85l-22 30l22 29q27 37 27 85v292q0 14 10 24t25 10h59v114h-68q-64 0 -102 -37.5t-38 -102.5v-300q0 -11 -6 -20l-44 -62q-21 -33 0 -64l44 -63q6 -7 6 -20v-300q0 -64 38 -102t102 -38h68z" />
    <glyph glyph-name="bar" unicode="|" horiz-adv-x="300" 
d="M90 720h120v-720h-120v720z" />
    <glyph glyph-name="braceright" unicode="}" horiz-adv-x="449" 
d="M41 -212h68q65 0 102.5 38t37.5 102v300q0 13 6 20l44 63q23 31 0 64l-44 62q-6 9 -6 20v300q0 65 -37.5 102.5t-102.5 37.5h-68v-114h60q14 0 24 -10t10 -24v-292q0 -46 28 -85l21 -29l-21 -30q-28 -39 -28 -85v-292q0 -15 -10 -25t-24 -10h-60v-113z" />
    <glyph glyph-name="asciitilde" unicode="~" horiz-adv-x="716" 
d="M592 396q14 -66 -13 -112q-29 -47 -80 -58q-64 -15 -139 23q-9 4 -34 17t-40.5 18t-30.5 4q-45 -4 -30 -53h-101q-14 64 13 112q28 47 80 58q64 15 139 -23q9 -4 26.5 -13l28 -14t25 -9t26.5 -3q22 2 29 18t-1 35h102z" />
    <glyph glyph-name="uni00A0" unicode="&#xa0;" horiz-adv-x="200" 
 />
    <glyph glyph-name="exclamdown" unicode="&#xa1;" horiz-adv-x="360" 
d="M120 429v111h120v-111h-120zM120 -180h120v540h-120v-540z" />
    <glyph glyph-name="cent" unicode="&#xa2;" horiz-adv-x="576" 
d="M305 173q88 0 117 85l123 -27q-43 -142 -188 -167v-93h-94v92q-104 14 -163 91t-60 191q1 114 60.5 191t162.5 91v93h94v-94q73 -12 122.5 -56t65.5 -112l-120 -33q-13 43 -45.5 67.5t-74.5 24.5q-68 0 -102.5 -47t-34.5 -125q0 -79 35 -125.5t102 -46.5z" />
    <glyph glyph-name="sterling" unicode="&#xa3;" horiz-adv-x="614" 
d="M270 305v-192h237v-113h-447v113h14q30 0 52 22.5t22 52.5v117h-88v113h88v125q0 82 59 137t145 55q138 0 202 -182l-108 -36q-16 52 -38 78t-57 26q-36 0 -58.5 -23.5t-22.5 -60.5v-119h152v-113h-152z" />
    <glyph glyph-name="yen" unicode="&#xa5;" horiz-adv-x="612" 
d="M612 720l-190 -330h89v-95h-144v-100h144v-95h-144v-100h-122v100h-144v95h144v100h-144v95h89l-190 330h141l165 -287l165 287h141z" />
    <glyph glyph-name="copyright" unicode="&#xa9;" horiz-adv-x="906" 
d="M453 -68q172 0 292.5 121t120.5 292t-120.5 292t-292.5 121q-171 0 -292 -121t-121 -292t121 -292t292 -121zM453 45q-125 0 -212.5 87.5t-87.5 212.5t87.5 212.5t212.5 87.5t212.5 -87.5t87.5 -212.5t-87.5 -212.5t-212.5 -87.5zM642 428l-92 -24q-11 32 -33 49
q-23 19 -56 19q-48 0 -76 -36q-24 -32 -24 -91q0 -58 24 -90q25 -36 76 -36q37 0 58 17q17 15 29 45l94 -20q-20 -63 -66 -95q-48 -34 -115 -34q-98 0 -149 66q-49 62 -49 147q0 90 49 146q55 67 151 67q60 0 104 -26q59 -36 75 -104z" />
    <glyph glyph-name="guillemotleft" unicode="&#xab;" horiz-adv-x="586" 
d="M256 94l64 50l-136 171l136 171l-64 51l-176 -222zM460 94l65 50l-137 171l137 171l-65 51l-176 -222z" />
    <glyph glyph-name="registered" unicode="&#xae;" horiz-adv-x="655" 
d="M327 788q106 0 182 -75.5t76 -181.5q0 -107 -75.5 -182.5t-182.5 -75.5q-106 0 -181.5 76t-75.5 182t75.5 181.5t181.5 75.5zM328 708q-74 0 -126 -52t-52 -125t52.5 -125.5t125.5 -52.5t125.5 52.5t52.5 125.5t-52.5 125t-125.5 52zM245 650h100q36 0 57.5 -21.5
t23.5 -57.5q0 -47 -42 -69l44 -89h-49l-39 81h-52v-81h-43v237zM288 608v-73h58q15 0 25 10t10 26q0 37 -35 37h-58z" />
    <glyph glyph-name="degree" unicode="&#xb0;" horiz-adv-x="450" 
d="M210 375q-74 0 -127 52.5t-53 127.5q0 73 54 126.5t126 53.5q74 0 127 -52.5t53 -127.5t-53 -127.5t-127 -52.5zM210 478q32 0 54.5 23t22.5 54t-22.5 54t-54.5 23t-54.5 -23t-22.5 -54t22.5 -54t54.5 -23z" />
    <glyph glyph-name="plusminus" unicode="&#xb1;" horiz-adv-x="600" 
d="M348 428h192v-95h-192v-113h-95v113h-193v95h193v112h95v-112zM60 65v94h480v-94h-480z" />
    <glyph glyph-name="periodcentered" unicode="&#xb7;" horiz-adv-x="627" 
d="M315 242q-32 0 -53.5 21t-21.5 52t21.5 52t53.5 21q30 0 51 -21t21 -52t-21 -52t-51 -21z" />
    <glyph glyph-name="guillemotright" unicode="&#xbb;" horiz-adv-x="586" 
d="M126 94l176 221l-176 222l-64 -51l136 -171l-136 -171zM330 94l176 221l-176 222l-64 -51l136 -171l-136 -171z" />
    <glyph glyph-name="questiondown" unicode="&#xbf;" horiz-adv-x="553" 
d="M352 540v-132h-127v132h127zM50 6q0 91 79 172l38.5 37.5t38.5 44.5q13 22 16 37t3 48h128q0 -76 -29 -127q-12 -23 -28 -39.5t-41 -37t-44 -39.5q-33 -38 -33 -93q0 -36 16 -56q26 -34 83 -34q46 0 71 22q30 24 28 68h127q-10 -108 -86 -161q-57 -42 -136 -42
q-125 0 -185 73q-46 54 -46 127z" />
    <glyph glyph-name="Agrave" unicode="&#xc0;" horiz-adv-x="671" 
d="M494 873l-32 -88l-267 96l30 88zM527 0l-49 156h-283l-50 -156h-125l227 720h177l227 -720h-124zM231 269h211l-105 334z" />
    <glyph glyph-name="Aacute" unicode="&#xc1;" horiz-adv-x="671" 
d="M476 881l-267 -96l-31 88l268 96zM527 0l-50 156h-284l-49 -156h-124l227 720h177l227 -720h-124zM229 269h212l-107 334z" />
    <glyph glyph-name="Acircumflex" unicode="&#xc2;" horiz-adv-x="671" 
d="M336 855l-127 -69l-44 83l171 93l170 -93l-43 -83zM527 0l-50 156h-284l-49 -156h-124l227 720h177l227 -720h-124zM229 269h212l-107 334z" />
    <glyph glyph-name="Atilde" unicode="&#xc3;" horiz-adv-x="671" 
d="M242 847h-72q-10 45 9 79q20 33 57 41q46 11 98 -16q7 -3 24.5 -12t28.5 -13t22 -3q16 1 21.5 13t-0.5 25h72q9 -49 -10 -79q-19 -34 -56 -42q-43 -10 -99 16q-5 3 -18.5 10t-20 10t-17 6t-18.5 2q-32 -3 -21 -37zM527 0l-50 156h-284l-49 -156h-124l227 720h177
l227 -720h-124zM229 269h212l-107 334z" />
    <glyph glyph-name="Adieresis" unicode="&#xc4;" horiz-adv-x="671" 
d="M288 950v-110h-110v110h110zM494 950v-110h-110v110h110zM527 0l-50 156h-284l-49 -156h-124l227 720h177l227 -720h-124zM229 269h212l-107 334z" />
    <glyph glyph-name="Aring" unicode="&#xc5;" horiz-adv-x="671" 
d="M527 0l-50 156h-284l-49 -156h-124l213 677q-43 43 -43 103t43 103t103 43t103 -43t43 -103q0 -62 -44 -104l213 -676h-124zM336 840q-25 0 -42.5 -17.5t-17.5 -42.5t17.5 -42.5t42.5 -17.5t42.5 17.5t17.5 42.5t-17.5 42.5t-42.5 17.5zM229 269h212l-107 334z" />
    <glyph glyph-name="AE" unicode="&#xc6;" horiz-adv-x="938" 
d="M888 607h-344v-178h284v-112h-284v-204h344v-113h-465v120h-241l-38 -120h-124l227 720h641v-113zM218 233h205v367h-89z" />
    <glyph glyph-name="Ccedilla" unicode="&#xc7;" horiz-adv-x="731" 
d="M543 175q21 28 34 67l118 -29q-29 -97 -98 -156q-72 -62 -179 -70l-10 -29q32 -16 48 -43q14 -25 12.5 -56t-17.5 -54q-36 -52 -99 -46q-28 3 -57 18l26 71q23 -7 32 -7q19 0 26 12q8 11 4 23q-3 10 -13.5 17.5t-20 10.5t-30.5 9l26 73q-142 13 -223 116q-82 106 -82 258
q0 162 81 259q94 116 256 116q136 0 219 -73q77 -66 104 -174l-121 -17q-12 41 -36 74q-57 74 -158 76q-51 1 -95 -19t-71 -57q-54 -67 -52 -185q2 -121 52 -185q54 -74 166 -76q100 -2 158 76z" />
    <glyph glyph-name="Egrave" unicode="&#xc8;" horiz-adv-x="585" 
d="M455 873l-31 -88l-267 96l30 88zM535 607h-345v-178h285v-112h-285v-204h345v-113h-465v720h465v-113z" />
    <glyph glyph-name="Eacute" unicode="&#xc9;" horiz-adv-x="585" 
d="M444 881l-267 -96l-31 88l268 96zM535 607h-345v-178h285v-112h-285v-204h345v-113h-465v720h465v-113z" />
    <glyph glyph-name="Ecircumflex" unicode="&#xca;" horiz-adv-x="585" 
d="M297 855l-127 -69l-44 83l171 93l170 -93l-44 -83zM535 607h-345v-178h285v-112h-285v-204h345v-113h-465v720h465v-113z" />
    <glyph glyph-name="Edieresis" unicode="&#xcb;" horiz-adv-x="585" 
d="M251 950v-110h-110v110h110zM458 950v-110h-110v110h110zM535 607h-345v-178h285v-112h-285v-204h345v-113h-465v720h465v-113z" />
    <glyph glyph-name="Igrave" unicode="&#xcc;" 
d="M263 785l31 88l-268 96l-31 -88zM80 720h120v-720h-120v720z" />
    <glyph glyph-name="Iacute" unicode="&#xcd;" 
d="M17 785l267 96l-30 88l-269 -96zM80 720h120v-720h-120v720z" />
    <glyph glyph-name="Icircumflex" unicode="&#xce;" 
d="M13 786l127 69l127 -69l44 83l-171 93l-170 -93zM80 720h120v-720h-120v720z" />
    <glyph glyph-name="Idieresis" unicode="&#xcf;" 
d="M-18 950h110v-110h-110v110zM189 950h110v-110h-110v110zM80 720h120v-720h-120v720z" />
    <glyph glyph-name="Eth" unicode="&#xd0;" horiz-adv-x="702" 
d="M388 716q126 -15 196 -115t70 -241t-70 -241t-196 -115q-33 -4 -87 -4h-229v313h-62v95h62v312h229q54 0 87 -4zM381 119q73 16 109 82t36 159t-36 159t-109 82q-24 5 -80 5h-107v-198h154v-95h-154v-199h107q56 0 80 5z" />
    <glyph glyph-name="Ntilde" unicode="&#xd1;" horiz-adv-x="718" 
d="M536 936q11 -46 -9 -79q-21 -34 -57 -42q-43 -10 -98 16l-19 10t-20 10t-17.5 6t-18.5 2q-32 -3 -21 -37h-72q-9 48 10 79q19 33 56 41q46 11 99 -16q5 -2 23 -12t29.5 -13.5t22.5 -2.5q15 1 20.5 13t-0.5 25h72zM192 720l334 -507v507h122v-720h-122l-334 508v-508h-122
v720h122z" />
    <glyph glyph-name="Ograve" unicode="&#xd2;" horiz-adv-x="769" 
d="M523 785l32 88l-269 96l-30 -88zM385 -15q-158 0 -251.5 104.5t-93.5 270.5t93.5 271t251.5 104q159 -1 250 -102.5t94 -272.5q-2 -170 -94.5 -272.5t-249.5 -102.5zM385 99q106 -1 161.5 70t55.5 191q0 121 -55.5 190.5t-161.5 70.5q-105 1 -162.5 -71t-55.5 -190
q1 -122 56 -191t162 -70z" />
    <glyph glyph-name="Oacute" unicode="&#xd3;" horiz-adv-x="769" 
d="M277 785l268 96l-31 88l-268 -96zM385 -15q-158 0 -251.5 104.5t-93.5 270.5t93.5 271t251.5 104q159 -1 250 -102.5t94 -272.5q-2 -170 -94.5 -272.5t-249.5 -102.5zM385 99q106 -1 161.5 70t55.5 191q0 121 -55.5 190.5t-161.5 70.5q-105 1 -162.5 -71t-55.5 -190
q1 -122 56 -191t162 -70z" />
    <glyph glyph-name="Ocircumflex" unicode="&#xd4;" horiz-adv-x="769" 
d="M258 786l127 69l126 -69l44 83l-170 93l-171 -93zM385 -15q-158 0 -251.5 104.5t-93.5 270.5t93.5 271t251.5 104q159 -1 250 -102.5t94 -272.5q-2 -170 -94.5 -272.5t-249.5 -102.5zM385 99q106 -1 161.5 70t55.5 191q0 121 -55.5 190.5t-161.5 70.5q-105 1 -162.5 -71
t-55.5 -190q1 -122 56 -191t162 -70z" />
    <glyph glyph-name="Otilde" unicode="&#xd5;" horiz-adv-x="769" 
d="M551 961q9 -49 -10 -79q-19 -34 -56 -42q-43 -10 -99 16q-5 3 -18.5 10t-20 10t-17 6t-18.5 2q-32 -3 -21 -37h-72q-10 45 9 79q20 33 57 41q46 11 98 -16q7 -3 24.5 -12t28.5 -13t22 -3q16 1 21.5 13t-0.5 25h72zM385 -15q-158 0 -251.5 104.5t-93.5 270.5t93.5 271
t251.5 104q159 -1 250 -102.5t94 -272.5q-2 -170 -94.5 -272.5t-249.5 -102.5zM385 99q106 -1 161.5 70t55.5 191q0 121 -55.5 190.5t-161.5 70.5q-105 1 -162.5 -71t-55.5 -190q1 -122 56 -191t162 -70z" />
    <glyph glyph-name="Odieresis" unicode="&#xd6;" horiz-adv-x="769" 
d="M226 950h110v-110h-110v110zM433 950h110v-110h-110v110zM385 -15q-158 0 -251.5 104.5t-93.5 270.5t93.5 271t251.5 104q159 -1 250 -102.5t94 -272.5q-2 -170 -94.5 -272.5t-249.5 -102.5zM385 99q106 -1 161.5 70t55.5 191q0 121 -55.5 190.5t-161.5 70.5
q-105 1 -162.5 -71t-55.5 -190q1 -122 56 -191t162 -70z" />
    <glyph glyph-name="multiply" unicode="&#xd7;" horiz-adv-x="508" 
d="M447 487l-126 -126l126 -127l-67 -67l-126 127l-127 -127l-67 67l127 127l-126 126l67 66l126 -126l126 126z" />
    <glyph glyph-name="Oslash" unicode="&#xd8;" horiz-adv-x="769" 
d="M750 639l-70 -70q47 -89 49 -209q-2 -170 -94.5 -272.5t-249.5 -102.5q-129 0 -217 72l-58 -57l-80 80l64 64q-54 93 -54 216q0 166 93.5 271t251.5 104q135 0 223 -77l62 62zM167 360q0 -67 19 -124l338 338q-55 47 -139 47q-105 1 -162.5 -71t-55.5 -190zM602 360
q0 66 -16 115l-335 -334q53 -42 134 -42q106 -1 161.5 70t55.5 191z" />
    <glyph glyph-name="Ugrave" unicode="&#xd9;" horiz-adv-x="720" 
d="M502 785l31 88l-268 96l-30 -88zM650 720v-453q0 -35 -8 -73q-23 -98 -99 -153.5t-182 -55.5q-109 0 -185.5 55t-97.5 153q-8 32 -8 74v452l122 1v-442q0 -36 6 -61q14 -53 59.5 -86t103.5 -33t103.5 36t58.5 90q5 21 5 54v442h122z" />
    <glyph glyph-name="Uacute" unicode="&#xda;" horiz-adv-x="720" 
d="M258 785l267 96l-30 88l-269 -96zM650 720v-453q0 -35 -8 -73q-23 -98 -99 -153.5t-182 -55.5q-109 0 -185.5 55t-97.5 153q-8 32 -8 74v452l122 1v-442q0 -36 6 -61q14 -53 59.5 -86t103.5 -33t103.5 36t58.5 90q5 21 5 54v442h122z" />
    <glyph glyph-name="Ucircumflex" unicode="&#xdb;" horiz-adv-x="720" 
d="M233 786l127 69l127 -69l44 83l-171 93l-170 -93zM650 720v-453q0 -35 -8 -73q-23 -98 -99 -153.5t-182 -55.5q-109 0 -185.5 55t-97.5 153q-8 32 -8 74v452l122 1v-442q0 -36 6 -61q14 -53 59.5 -86t103.5 -33t103.5 36t58.5 90q5 21 5 54v442h122z" />
    <glyph glyph-name="Udieresis" unicode="&#xdc;" horiz-adv-x="720" 
d="M202 950h110v-110h-110v110zM408 950h110v-110h-110v110zM650 720v-453q0 -35 -8 -73q-23 -98 -99 -153.5t-182 -55.5q-109 0 -185.5 55t-97.5 153q-8 32 -8 74v452l122 1v-442q0 -36 6 -61q14 -53 59.5 -86t103.5 -33t103.5 36t58.5 90q5 21 5 54v442h122z" />
    <glyph glyph-name="Yacute" unicode="&#xdd;" horiz-adv-x="612" 
d="M198 785l268 96l-31 88l-268 -96zM471 720h141l-245 -425v-295h-122v295l-245 425h141l165 -287z" />
    <glyph glyph-name="Thorn" unicode="&#xde;" horiz-adv-x="630" 
d="M600 360q2 -77 -49 -142q-32 -42 -82 -66.5t-106 -24.5h-171v-127h-122v720h122v-126h171q38 0 74 -11q69 -22 112 -79q49 -62 51 -144zM453 286q26 35 25 74q-2 49 -31 80q-37 41 -84 41h-171v-242h171q23 0 48 13t42 34z" />
    <glyph glyph-name="germandbls" unicode="&#xdf;" horiz-adv-x="635" 
d="M70 0v530q0 38 9 70q22 68 79.5 101.5t134.5 33.5q95 0 159.5 -57.5t64.5 -145.5t-61 -134q52 -19 85.5 -69t33.5 -117q0 -107 -59.5 -167t-170.5 -60q-56 0 -92 15v118q36 -15 76 -15q58 0 91.5 28.5t33.5 82.5q0 57 -43 86t-118 29v105q48 4 75 28.5t27 67.5
q0 42 -29.5 67t-72.5 25q-65 0 -89 -49q-12 -27 -12 -75v-498h-122z" />
    <glyph glyph-name="agrave" unicode="&#xe0;" horiz-adv-x="576" 
d="M449 605l31 88l-268 96l-30 -88zM516 0h-105v71q-36 -45 -80.5 -65.5t-112.5 -20.5q-81 0 -129.5 46t-48.5 122q0 108 104 149q17 7 38.5 13t37 9.5t45 8.5l41 7t47.5 7t44 6q-4 47 -34 69.5t-75 22.5q-91 0 -120 -75l-109 34q27 67 87.5 109t145.5 42q170 0 213 -135
q11 -39 11 -95v-325zM378 152q19 35 19 102q-114 -17 -164 -30q-75 -22 -75 -74q0 -29 23 -49.5t64 -20.5q42 0 78 20t55 52z" />
    <glyph glyph-name="aacute" unicode="&#xe1;" horiz-adv-x="576" 
d="M188 605l267 96l-30 88l-268 -96zM516 0h-105v71q-36 -45 -80.5 -65.5t-112.5 -20.5q-81 0 -129.5 46t-48.5 122q0 108 104 149q17 7 38.5 13t37 9.5t45 8.5l41 7t47.5 7t44 6q-4 47 -34 69.5t-75 22.5q-91 0 -120 -75l-109 34q27 67 87.5 109t145.5 42q170 0 213 -135
q11 -39 11 -95v-325zM378 152q19 35 19 102q-114 -17 -164 -30q-75 -22 -75 -74q0 -29 23 -49.5t64 -20.5q42 0 78 20t55 52z" />
    <glyph glyph-name="acircumflex" unicode="&#xe2;" horiz-adv-x="576" 
d="M171 606l127 69l127 -69l44 83l-171 93l-170 -93zM516 0h-105v71q-36 -45 -80.5 -65.5t-112.5 -20.5q-81 0 -129.5 46t-48.5 122q0 108 104 149q17 7 38.5 13t37 9.5t45 8.5l41 7t47.5 7t44 6q-4 47 -34 69.5t-75 22.5q-91 0 -120 -75l-109 34q27 67 87.5 109t145.5 42
q170 0 213 -135q11 -39 11 -95v-325zM378 152q19 35 19 102q-114 -17 -164 -30q-75 -22 -75 -74q0 -29 23 -49.5t64 -20.5q42 0 78 20t55 52z" />
    <glyph glyph-name="atilde" unicode="&#xe3;" horiz-adv-x="576" 
d="M465 756q9 -48 -9 -79q-21 -34 -57 -42q-43 -10 -98 16l-19 10t-20 10t-17.5 6t-18.5 2q-32 -3 -21 -37h-72q-9 47 9 79q20 33 57 41q46 11 98 -16q7 -3 19.5 -9.5t20 -10t17.5 -6.5t19 -2q15 1 20.5 13t-0.5 25h72zM516 0h-105v71q-36 -45 -80.5 -65.5t-112.5 -20.5
q-81 0 -129.5 46t-48.5 122q0 108 104 149q17 7 38.5 13t37 9.5t45 8.5l41 7t47.5 7t44 6q-4 47 -34 69.5t-75 22.5q-91 0 -120 -75l-109 34q27 67 87.5 109t145.5 42q170 0 213 -135q11 -39 11 -95v-325zM378 152q19 35 19 102q-114 -17 -164 -30q-75 -22 -75 -74
q0 -29 23 -49.5t64 -20.5q42 0 78 20t55 52z" />
    <glyph glyph-name="adieresis" unicode="&#xe4;" horiz-adv-x="576" 
d="M139 733h110v-110h-110v110zM346 733h110v-110h-110v110zM516 0h-105v71q-36 -45 -80.5 -65.5t-112.5 -20.5q-81 0 -129.5 46t-48.5 122q0 108 104 149q17 7 38.5 13t37 9.5t45 8.5l41 7t47.5 7t44 6q-4 47 -34 69.5t-75 22.5q-91 0 -120 -75l-109 34q27 67 87.5 109
t145.5 42q170 0 213 -135q11 -39 11 -95v-325zM378 152q19 35 19 102q-114 -17 -164 -30q-75 -22 -75 -74q0 -29 23 -49.5t64 -20.5q42 0 78 20t55 52z" />
    <glyph glyph-name="aring" unicode="&#xe5;" horiz-adv-x="576" 
d="M505 420q11 -39 11 -95v-325h-105v71q-36 -45 -80.5 -65.5t-112.5 -20.5q-81 0 -129.5 46t-48.5 122q0 108 104 149q17 7 38.5 13t37 9.5t45 8.5l41 7t47.5 7t44 6q-4 47 -34 69.5t-75 22.5q-91 0 -120 -75l-109 34q35 85 115 125q-29 39 -29 86q0 60 43 103t103 43
t103 -43t43 -103q0 -46 -27 -84q71 -34 95 -111zM291 675q-25 0 -42.5 -17.5t-17.5 -42.5t17.5 -42.5t42.5 -17.5t42.5 17.5t17.5 42.5t-17.5 42.5t-42.5 17.5zM378 152q19 35 19 102q-114 -17 -164 -30q-75 -22 -75 -74q0 -29 23 -49.5t64 -20.5q42 0 78 20t55 52z" />
    <glyph glyph-name="ae" unicode="&#xe6;" horiz-adv-x="938" 
d="M528 236q7 -65 40.5 -101.5t90.5 -36.5q85 0 120 77l112 -36q-28 -72 -90 -113t-136 -41q-143 0 -216 113q-2 -4 -5 -7q-40 -57 -97 -83q-41 -18 -96 -21t-89 10q-63 20 -91 63q-53 76 -18 159q14 31 38.5 54.5t51.5 33.5q63 26 172 26h92q0 60 -44 88q-35 21 -89 21
q-51 0 -80 -26q-13 -7 -27 -28l-110 52q10 15 13 18q65 96 207 96q83 0 145 -33q32 -19 54 -44q69 78 183 78q122 0 184.5 -87.5t53.5 -231.5h-369zM659 450q-106 0 -128 -119h250q-7 59 -35.5 89t-86.5 30zM377 159q17 21 29 69h-67q-85 0 -98 -1q-52 -5 -73 -36
q-8 -13 -8 -31.5t11 -33.5q22 -28 57 -30q40 -5 86 15q40 16 63 48z" />
    <glyph glyph-name="ccedilla" unicode="&#xe7;" horiz-adv-x="576" 
d="M305 98q88 0 117 85l123 -27q-45 -146 -194 -168l-10 -30q32 -16 48 -43q14 -25 12.5 -56t-17.5 -54q-36 -52 -99 -46q-28 3 -57 18l26 71q24 -7 32 -7q20 0 26 12q8 11 4 23q-3 10 -13.5 17.5t-20 10.5t-30.5 9l26 73q-110 10 -173.5 88t-64.5 196q1 126 73 205.5
t193 79.5q92 0 155.5 -46t83.5 -126l-120 -33q-13 43 -45.5 67.5t-74.5 24.5q-68 0 -102.5 -47t-34.5 -125q0 -79 35 -125.5t102 -46.5z" />
    <glyph glyph-name="egrave" unicode="&#xe8;" horiz-adv-x="602" 
d="M490 693l-31 -88l-268 96l31 88zM170 236q7 -65 42.5 -101.5t96.5 -36.5q90 0 126 77l119 -36q-29 -71 -95 -112.5t-144 -41.5q-124 0 -199.5 78t-75.5 201q0 131 73.5 211t195.5 80q129 0 195 -88t56 -231h-390zM309 450q-114 0 -136 -119h265q-8 60 -38 89.5t-91 29.5z
" />
    <glyph glyph-name="eacute" unicode="&#xe9;" horiz-adv-x="602" 
d="M458 701l-268 -96l-31 88l268 96zM170 236q7 -65 42.5 -101.5t96.5 -36.5q90 0 126 77l119 -36q-29 -71 -95 -112.5t-144 -41.5q-124 0 -199.5 78t-75.5 201q0 131 73.5 211t195.5 80q129 0 195 -88t56 -231h-390zM309 450q-114 0 -136 -119h265q-8 60 -38 89.5t-91 29.5
z" />
    <glyph glyph-name="ecircumflex" unicode="&#xea;" horiz-adv-x="602" 
d="M310 675l-127 -69l-44 83l171 93l170 -93l-44 -83zM170 236q7 -65 42.5 -101.5t96.5 -36.5q90 0 126 77l119 -36q-29 -71 -95 -112.5t-144 -41.5q-124 0 -199.5 78t-75.5 201q0 131 73.5 211t195.5 80q129 0 195 -88t56 -231h-390zM309 450q-114 0 -136 -119h265
q-8 60 -38 89.5t-91 29.5z" />
    <glyph glyph-name="edieresis" unicode="&#xeb;" horiz-adv-x="602" 
d="M260 733v-110h-110v110h110zM467 733v-110h-110v110h110zM170 236q7 -65 42.5 -101.5t96.5 -36.5q90 0 126 77l119 -36q-29 -71 -95 -112.5t-144 -41.5q-124 0 -199.5 78t-75.5 201q0 131 73.5 211t195.5 80q129 0 195 -88t56 -231h-390zM309 450q-114 0 -136 -119h265
q-8 60 -38 89.5t-91 29.5z" />
    <glyph glyph-name="igrave" unicode="&#xec;" 
d="M259 605l31 88l-268 96l-31 -88zM80 540v-540h120v540h-120z" />
    <glyph glyph-name="iacute" unicode="&#xed;" 
d="M22 605l267 96l-30 88l-269 -96zM80 540v-540h120v540h-120z" />
    <glyph glyph-name="icircumflex" unicode="&#xee;" 
d="M22 606l127 69l126 -69l44 83l-170 93l-171 -93zM80 540v-540h120v540h-120z" />
    <glyph glyph-name="idieresis" unicode="&#xef;" 
d="M-18 733h110v-110h-110v110zM189 733h110v-110h-110v110zM80 540v-540h120v540h-120z" />
    <glyph glyph-name="eth" unicode="&#xf0;" horiz-adv-x="596" 
d="M465 639q55 -71 73 -161t18 -223q0 -120 -66 -190q-53 -80 -191 -80q-122 0 -193 80q-66 72 -66 186q0 115 66 187q70 80 193 80q73 0 113 -27q23 -13 30 -18q-7 54 -47 96q-15 17 -30 29l-46 -59l-75 59l39 49q-35 13 -77 16l18 93q70 -3 124 -26l58 73l74 -59l-51 -65
q21 -19 36 -40zM402 137q34 39 34 115q0 74 -34 115q-36 44 -103 44q-69 0 -105 -44q-33 -40 -33 -115q0 -77 33 -115q36 -45 105 -45q67 0 103 45z" />
    <glyph glyph-name="ntilde" unicode="&#xf1;" horiz-adv-x="626" 
d="M220 642h-72q-10 45 9 79q20 33 57 41q46 11 98 -16q7 -3 24.5 -12t28.5 -13t22 -3q16 1 21.5 13t-0.5 25h71q11 -48 -9 -79q-19 -34 -56 -42q-43 -10 -99 16l-19 10t-20 10t-17 6t-18 2q-32 -3 -21 -37zM501 500q29 -27 44.5 -70.5t18 -78t2.5 -90.5v-261h-122v256
q0 116 -43 155q-33 33 -90 31q-42 -2 -71 -25q-33 -27 -42 -75q-6 -26 -6 -106v-1v-235h-121v540h106v-61q4 4 12 14q49 57 138 61q110 7 174 -54z" />
    <glyph glyph-name="ograve" unicode="&#xf2;" horiz-adv-x="618" 
d="M438 605l31 88l-268 96l-31 -88zM309 -15q-120 0 -194.5 79.5t-74.5 205.5t74 205.5t195 79.5q120 0 194.5 -79t74.5 -206q0 -126 -74 -205.5t-195 -79.5zM167 270q0 -78 36.5 -125t105.5 -47t105.5 46t36.5 126q0 79 -36 125.5t-106 46.5q-69 0 -105.5 -46t-36.5 -126z
" />
    <glyph glyph-name="oacute" unicode="&#xf3;" horiz-adv-x="618" 
d="M180 605l268 96l-31 88l-268 -96zM309 -15q-121 0 -195 79.5t-74 205.5q0 127 74.5 206t194.5 79q121 0 195 -79.5t74 -205.5t-74.5 -205.5t-194.5 -79.5zM451 270q0 80 -36.5 126t-105.5 46q-70 0 -105.5 -46t-35.5 -126t36 -126t105 -46t105.5 47t36.5 125z" />
    <glyph glyph-name="ocircumflex" unicode="&#xf4;" horiz-adv-x="618" 
d="M183 606l127 69l126 -69l44 83l-170 93l-171 -93zM309 -15q-121 0 -195 79.5t-74 205.5q0 127 74.5 206t194.5 79q121 0 195 -79.5t74 -205.5t-74.5 -205.5t-194.5 -79.5zM451 270q0 80 -36.5 126t-105.5 46q-70 0 -105.5 -46t-35.5 -126t36 -126t105 -46t105.5 47
t36.5 125z" />
    <glyph glyph-name="otilde" unicode="&#xf5;" horiz-adv-x="618" 
d="M475 756q11 -48 -9 -79q-19 -34 -56 -42q-43 -10 -99 16l-19 10t-20 10t-17 6t-18 2q-32 -3 -21 -37h-72q-10 45 9 79q20 33 57 41q46 11 98 -16q7 -3 24.5 -12t28.5 -13t22 -3q16 1 21.5 13t-0.5 25h71zM309 -15q-121 0 -195 79.5t-74 205.5q0 127 74.5 206t194.5 79
q121 0 195 -79.5t74 -205.5t-74.5 -205.5t-194.5 -79.5zM451 270q0 80 -36.5 126t-105.5 46q-70 0 -105.5 -46t-35.5 -126t36 -126t105 -46t105.5 47t36.5 125z" />
    <glyph glyph-name="odieresis" unicode="&#xf6;" horiz-adv-x="618" 
d="M151 733h110v-110h-110v110zM358 733h110v-110h-110v110zM309 -15q-121 0 -195 79.5t-74 205.5q0 127 74.5 206t194.5 79q121 0 195 -79.5t74 -205.5t-74.5 -205.5t-194.5 -79.5zM451 270q0 80 -36.5 126t-105.5 46q-70 0 -105.5 -46t-35.5 -126t36 -126t105 -46
t105.5 47t36.5 125z" />
    <glyph glyph-name="oslash" unicode="&#xf8;" horiz-adv-x="618" 
d="M592 472l-50 -50q36 -67 36 -152q0 -126 -74.5 -205.5t-194.5 -79.5q-91 0 -158 47l-45 -45l-80 81l50 50q-36 67 -36 152q0 127 74.5 206t194.5 79q91 0 158 -47l45 45zM168 270q0 -27 5 -55l210 209q-31 18 -74 18q-70 0 -105.5 -46t-35.5 -126zM451 270q0 28 -5 56
l-210 -210q30 -18 73 -18q69 0 105.5 47t36.5 125z" />
    <glyph glyph-name="ugrave" unicode="&#xf9;" horiz-adv-x="626" 
d="M475 693l-31 -88l-268 96l31 88zM434 540h122v-540h-107v61q-4 -4 -12 -14q-49 -57 -138 -61q-109 -7 -174 54q-29 27 -44.5 70.5t-18 78t-2.5 90.5v261h122v-256q0 -116 43 -155q33 -33 90 -31q40 1 71 25q33 27 42 75q6 26 6 106v1v235z" />
    <glyph glyph-name="uacute" unicode="&#xfa;" horiz-adv-x="626" 
d="M454 701l-267 -96l-31 88l268 96zM434 540h122v-540h-107v61q-4 -4 -12 -14q-49 -57 -138 -61q-109 -7 -174 54q-29 27 -44.5 70.5t-18 78t-2.5 90.5v261h122v-256q0 -116 43 -155q33 -33 90 -31q40 1 71 25q33 27 42 75q6 26 6 106v1v235z" />
    <glyph glyph-name="ucircumflex" unicode="&#xfb;" horiz-adv-x="626" 
d="M308 675l-127 -69l-44 83l171 93l170 -93l-44 -83zM434 540h122v-540h-107v61q-4 -4 -12 -14q-49 -57 -138 -61q-109 -7 -174 54q-29 27 -44.5 70.5t-18 78t-2.5 90.5v261h122v-256q0 -116 43 -155q33 -33 90 -31q40 1 71 25q33 27 42 75q6 26 6 106v1v235z" />
    <glyph glyph-name="udieresis" unicode="&#xfc;" horiz-adv-x="626" 
d="M259 733v-110h-110v110h110zM466 733v-110h-110v110h110zM434 540h122v-540h-107v61q-4 -4 -12 -14q-49 -57 -138 -61q-109 -7 -174 54q-29 27 -44.5 70.5t-18 78t-2.5 90.5v261h122v-256q0 -116 43 -155q33 -33 90 -31q40 1 71 25q33 27 42 75q6 26 6 106v1v235z" />
    <glyph glyph-name="yacute" unicode="&#xfd;" horiz-adv-x="559" 
d="M450 701l-267 -96l-31 88l268 96zM434 540h121l-301 -780l-113 1l88 239l1 4l-218 536h125l151 -385z" />
    <glyph glyph-name="thorn" unicode="&#xfe;" horiz-adv-x="617" 
d="M326 555q113 0 182 -80t69 -205q0 -123 -68 -204t-179 -81q-82 0 -139 43v-268h-121v960h121v-207q56 42 135 42zM312 93q67 0 102 49t35 128q0 78 -36 127.5t-105 49.5q-66 0 -98.5 -47.5t-32.5 -129.5q0 -177 135 -177z" />
    <glyph glyph-name="ydieresis" unicode="&#xff;" horiz-adv-x="559" 
d="M241 733v-110h-110v110h110zM447 733v-110h-110v110h110zM434 540h121l-301 -780l-113 1l88 239l1 4l-218 536h125l151 -385z" />
    <glyph glyph-name="Amacron" unicode="&#x100;" horiz-adv-x="671" 
d="M469 934v-94h-266v94h266zM527 0l-50 156h-284l-49 -156h-124l227 720h177l227 -720h-124zM229 269h212l-107 334z" />
    <glyph glyph-name="amacron" unicode="&#x101;" horiz-adv-x="576" 
d="M175 754h267v-94h-267v94zM516 0h-105v71q-36 -45 -80.5 -65.5t-112.5 -20.5q-81 0 -129.5 46t-48.5 122q0 108 104 149q17 7 38.5 13t37 9.5t45 8.5l41 7t47.5 7t44 6q-4 47 -34 69.5t-75 22.5q-91 0 -120 -75l-109 34q27 67 87.5 109t145.5 42q170 0 213 -135
q11 -39 11 -95v-325zM378 152q19 35 19 102q-114 -17 -164 -30q-75 -22 -75 -74q0 -29 23 -49.5t64 -20.5q42 0 78 20t55 52z" />
    <glyph glyph-name="Abreve" unicode="&#x102;" horiz-adv-x="671" 
d="M336 780q-63 0 -107.5 44.5t-44.5 107.5h94q0 -24 17 -41t41 -17t40.5 17t16.5 41h94q0 -63 -44 -107.5t-107 -44.5zM527 0l-50 156h-284l-49 -156h-124l227 720h177l227 -720h-124zM229 269h212l-107 334z" />
    <glyph glyph-name="abreve" unicode="&#x103;" horiz-adv-x="576" 
d="M351 752h94q0 -63 -44.5 -107.5t-107.5 -44.5q-62 0 -106.5 44.5t-44.5 107.5h94q0 -24 17 -41t40 -17q24 0 41 17t17 41zM516 0h-105v71q-36 -45 -80.5 -65.5t-112.5 -20.5q-81 0 -129.5 46t-48.5 122q0 108 104 149q17 7 38.5 13t37 9.5t45 8.5l41 7t47.5 7t44 6
q-4 47 -34 69.5t-75 22.5q-91 0 -120 -75l-109 34q27 67 87.5 109t145.5 42q170 0 213 -135q11 -39 11 -95v-325zM378 152q19 35 19 102q-114 -17 -164 -30q-75 -22 -75 -74q0 -29 23 -49.5t64 -20.5q42 0 78 20t55 52z" />
    <glyph glyph-name="Aogonek" unicode="&#x104;" horiz-adv-x="671" 
d="M546 -140q12 -11 28.5 -8t31.5 15l43 -56q-16 -28 -47 -41q-34 -16 -70 -7t-60 39q-20 22 -24.5 57t9.5 69q19 47 65 87l-45 141h-284l-49 -156h-124l227 720h177l227 -720h-16q-34 -24 -53 -48q-27 -27 -39 -56q-7 -26 3 -36zM229 269h212l-107 334z" />
    <glyph glyph-name="aogonek" unicode="&#x105;" horiz-adv-x="576" 
d="M498 -133l44 -56q-18 -28 -48 -41q-33 -16 -69.5 -7t-59.5 39q-21 22 -25 57.5t9 68.5q18 45 62 84v59q-36 -45 -80.5 -65.5t-112.5 -20.5q-81 0 -129.5 46t-48.5 122q0 108 104 149q17 7 38.5 13t37 9.5t45 8.5l41 7t47.5 7t44 6q-4 47 -34 69.5t-75 22.5
q-91 0 -120 -75l-109 34q27 67 87.5 109t145.5 42q170 0 213 -135q11 -39 11 -95v-308l11 -17q-37 -27 -53 -48q-26 -28 -38 -56q-10 -24 3 -36q11 -11 28 -8t31 15zM378 152q19 35 19 102q-114 -17 -164 -30q-75 -22 -75 -74q0 -29 23 -49.5t64 -20.5q42 0 78 20t55 52z
" />
    <glyph glyph-name="Cacute" unicode="&#x106;" horiz-adv-x="731" 
d="M271 785l267 96l-30 88l-268 -96zM577 242l118 -29q-29 -97 -98 -156q-83 -72 -220 -72q-164 0 -255 117q-82 106 -82 258q0 162 81 259q94 116 256 116q136 0 219 -73q77 -66 104 -174l-121 -17q-12 41 -36 74q-57 74 -158 76q-51 1 -95 -19t-71 -57q-54 -67 -52 -185
q2 -121 52 -185q54 -74 166 -76q100 -2 158 76q21 28 34 67z" />
    <glyph glyph-name="cacute" unicode="&#x107;" horiz-adv-x="576" 
d="M184 605l267 96l-30 88l-269 -96zM545 383l-120 -33q-13 43 -45.5 67.5t-74.5 24.5q-68 0 -102.5 -47t-34.5 -125q0 -79 35 -125.5t102 -46.5q88 0 117 85l123 -27q-25 -82 -87.5 -126.5t-152.5 -44.5q-122 0 -193 79.5t-72 205.5q1 126 73 205.5t193 79.5
q92 0 155.5 -46t83.5 -126z" />
    <glyph glyph-name="Cdotaccent" unicode="&#x10a;" horiz-adv-x="731" 
d="M318 975h123v-123h-123v123zM577 242l118 -29q-29 -97 -98 -156q-83 -72 -220 -72q-164 0 -255 117q-82 106 -82 258q0 162 81 259q94 116 256 116q136 0 219 -73q77 -66 104 -174l-121 -17q-12 41 -36 74q-57 74 -158 76q-51 1 -95 -19t-71 -57q-54 -67 -52 -185
q2 -121 52 -185q54 -74 166 -76q100 -2 158 76q21 28 34 67z" />
    <glyph glyph-name="cdotaccent" unicode="&#x10b;" horiz-adv-x="576" 
d="M259 770h123v-123h-123v123zM545 383l-120 -33q-13 43 -45.5 67.5t-74.5 24.5q-68 0 -102.5 -47t-34.5 -125q0 -79 35 -125.5t102 -46.5q88 0 117 85l123 -27q-25 -82 -87.5 -126.5t-152.5 -44.5q-122 0 -193 79.5t-72 205.5q1 126 73 205.5t193 79.5q92 0 155.5 -46
t83.5 -126z" />
    <glyph glyph-name="Ccaron" unicode="&#x10c;" horiz-adv-x="731" 
d="M264 962l-43 -82l170 -94l171 94l-44 82l-127 -69zM577 242l118 -29q-29 -97 -98 -156q-83 -72 -220 -72q-164 0 -255 117q-82 106 -82 258q0 162 81 259q94 116 256 116q136 0 219 -73q77 -66 104 -174l-121 -17q-12 41 -36 74q-57 74 -158 76q-51 1 -95 -19t-71 -57
q-54 -67 -52 -185q2 -121 52 -185q54 -74 166 -76q100 -2 158 76q21 28 34 67z" />
    <glyph glyph-name="ccaron" unicode="&#x10d;" horiz-adv-x="576" 
d="M178 782l-44 -82l171 -94l170 94l-44 82l-126 -69zM545 383l-120 -33q-13 43 -45.5 67.5t-74.5 24.5q-68 0 -102.5 -47t-34.5 -125q0 -79 35 -125.5t102 -46.5q88 0 117 85l123 -27q-25 -82 -87.5 -126.5t-152.5 -44.5q-122 0 -193 79.5t-72 205.5q1 126 73 205.5
t193 79.5q92 0 155.5 -46t83.5 -126z" />
    <glyph glyph-name="Dcaron" unicode="&#x10e;" horiz-adv-x="700" 
d="M165 962l-44 -82l171 -94l170 94l-43 82l-127 -69zM652 360q0 141 -70 241t-195 115q-35 4 -88 4h-229v-720h229q53 0 88 4q125 15 195 115t70 241zM525 360q0 -93 -36.5 -159t-109.5 -82q-23 -5 -80 -5h-106v492h106q57 0 80 -5q73 -16 109.5 -82t36.5 -159z" />
    <glyph glyph-name="dcaron" unicode="&#x10f;" horiz-adv-x="786" 
d="M628 722h124v-134q0 -66 -31.5 -99t-92.5 -23l8 52q32 -3 46.5 18t9.5 57h-64v129zM426 513v207h121v-720h-106v40q-61 -55 -154 -55q-111 0 -179 81t-68 204q0 125 69 205t182 80q79 0 135 -42zM305 93q135 0 135 177q0 82 -32.5 129.5t-98.5 47.5q-69 0 -105 -49.5
t-36 -127.5q0 -79 35 -128t102 -49z" />
    <glyph glyph-name="Dcroat" unicode="&#x110;" horiz-adv-x="702" 
d="M388 716q126 -15 196 -115t70 -241t-70 -241t-196 -115q-33 -4 -87 -4h-229v313h-62v95h62v312h229q54 0 87 -4zM381 119q73 16 109 82t36 159t-36 159t-109 82q-24 5 -80 5h-107v-198h154v-95h-154v-199h107q56 0 80 5z" />
    <glyph glyph-name="dcroat" unicode="&#x111;" horiz-adv-x="617" 
d="M611 677v-94h-64v-583h-106v40q-61 -55 -154 -55q-111 0 -179 81t-68 204q0 125 69 205t182 80q79 0 135 -42v70h-82v94h82v43h121v-43h64zM305 93q135 0 135 177q0 82 -32.5 129.5t-98.5 47.5q-69 0 -105 -49.5t-36 -127.5q0 -79 35 -128t102 -49z" />
    <glyph glyph-name="Emacron" unicode="&#x112;" horiz-adv-x="585" 
d="M440 934v-94h-267v94h267zM535 607h-345v-178h285v-112h-285v-204h345v-113h-465v720h465v-113z" />
    <glyph glyph-name="emacron" unicode="&#x113;" horiz-adv-x="602" 
d="M452 754v-94h-267v94h267zM170 236q7 -65 42.5 -101.5t96.5 -36.5q90 0 126 77l119 -36q-29 -71 -95 -112.5t-144 -41.5q-124 0 -199.5 78t-75.5 201q0 131 73.5 211t195.5 80q129 0 195 -88t56 -231h-390zM309 450q-114 0 -136 -119h265q-8 60 -38 89.5t-91 29.5z" />
    <glyph glyph-name="Edotaccent" unicode="&#x116;" horiz-adv-x="585" 
d="M364 950v-123h-123v123h123zM535 607h-345v-178h285v-112h-285v-204h345v-113h-465v720h465v-113z" />
    <glyph glyph-name="edotaccent" unicode="&#x117;" horiz-adv-x="602" 
d="M371 770v-123h-123v123h123zM170 236q7 -65 42.5 -101.5t96.5 -36.5q90 0 126 77l119 -36q-29 -71 -95 -112.5t-144 -41.5q-124 0 -199.5 78t-75.5 201q0 131 73.5 211t195.5 80q129 0 195 -88t56 -231h-390zM309 450q-114 0 -136 -119h265q-8 60 -38 89.5t-91 29.5z" />
    <glyph glyph-name="Eogonek" unicode="&#x118;" horiz-adv-x="585" 
d="M506 -133l44 -56q-18 -28 -48 -41q-33 -16 -69.5 -7t-59.5 39q-21 22 -25 57.5t9 68.5q16 39 49 72h-336v720h465v-113h-345v-178h285v-112h-285v-204h345v-113q-37 -27 -53 -48q-26 -28 -38 -56q-10 -24 3 -36q11 -11 28 -8t31 15z" />
    <glyph glyph-name="eogonek" unicode="&#x119;" horiz-adv-x="602" 
d="M170 236q7 -65 42.5 -101.5t96.5 -36.5q90 0 126 77l119 -36q-6 -15 -17 -33l4 -1q-17 -29 -46 -73.5t-35 -55.5q-27 -50 -36 -79q-9 -23 4 -37q13 -11 29 -8t31 15l43 -56q-16 -28 -47 -41q-35 -15 -71 -6t-59 38q-19 24 -24 57.5t9 68.5q14 32 35 63q-30 -6 -59 -6
q-124 0 -199.5 78t-75.5 201q0 131 73.5 211t195.5 80q129 0 195 -88t56 -231h-390zM309 450q-114 0 -136 -119h265q-8 60 -38 89.5t-91 29.5z" />
    <glyph glyph-name="Ecaron" unicode="&#x11a;" horiz-adv-x="585" 
d="M477 880l-170 -94l-171 94l44 82l127 -69l126 69zM535 607h-345v-178h285v-112h-285v-204h345v-113h-465v720h465v-113z" />
    <glyph glyph-name="ecaron" unicode="&#x11b;" horiz-adv-x="602" 
d="M496 700l-171 -94l-170 94l44 82l126 -69l127 69zM170 236q7 -65 42.5 -101.5t96.5 -36.5q90 0 126 77l119 -36q-29 -71 -95 -112.5t-144 -41.5q-124 0 -199.5 78t-75.5 201q0 131 73.5 211t195.5 80q129 0 195 -88t56 -231h-390zM309 450q-114 0 -136 -119h265
q-8 60 -38 89.5t-91 29.5z" />
    <glyph glyph-name="Gbreve" unicode="&#x11e;" horiz-adv-x="755" 
d="M384 780q-63 0 -107.5 44.5t-44.5 107.5h94q0 -24 17 -41t41 -17t40.5 17t16.5 41h94q0 -63 -44 -107.5t-107 -44.5zM714 378l1 -38q0 -147 -85 -248q-90 -107 -253 -107q-166 0 -256 118q-81 108 -81 257q0 160 81 259q94 116 256 116q138 0 219 -73q74 -61 99 -162
l-131 -20q-16 50 -47 80q-51 51 -132 51q-106 0 -160 -74q-47 -61 -49 -177q2 -115 49 -177q26 -36 69 -55t91 -18q79 -2 132 51q48 46 57 122h-150v95h290z" />
    <glyph glyph-name="gbreve" unicode="&#x11f;" horiz-adv-x="616" 
d="M338 600q-63 0 -107.5 44.5t-44.5 107.5h94q0 -24 17 -41t41 -17t40.5 17t16.5 41h94q0 -63 -44 -107.5t-107 -44.5zM440 540h106v-566q0 -42 -7 -76q-18 -76 -82.5 -114t-159.5 -38q-68 0 -125.5 31t-89.5 85l112 55q29 -57 104 -57q58 0 93.5 30t34.5 86v52
q-57 -43 -139 -43q-111 0 -179 81t-68 204q0 125 69 205t182 80q90 0 149 -53v38zM305 93q135 0 135 177q0 82 -32.5 129.5t-98.5 47.5q-69 0 -105 -49.5t-36 -127.5q0 -79 35 -128t102 -49z" />
    <glyph glyph-name="Gdotaccent" unicode="&#x120;" horiz-adv-x="755" 
d="M440 950v-123h-124v123h124zM714 378l1 -38q0 -147 -85 -248q-90 -107 -253 -107q-166 0 -256 118q-81 108 -81 257q0 160 81 259q94 116 256 116q138 0 219 -73q74 -61 99 -162l-131 -20q-16 50 -47 80q-51 51 -132 51q-106 0 -160 -74q-47 -61 -49 -177q2 -115 49 -177
q26 -36 69 -55t91 -18q79 -2 132 51q48 46 57 122h-150v95h290z" />
    <glyph glyph-name="gdotaccent" unicode="&#x121;" horiz-adv-x="616" 
d="M392 770v-123h-123v123h123zM440 540h106v-566q0 -42 -7 -76q-18 -76 -82.5 -114t-159.5 -38q-68 0 -125.5 31t-89.5 85l112 55q29 -57 104 -57q58 0 93.5 30t34.5 86v52q-57 -43 -139 -43q-111 0 -179 81t-68 204q0 125 69 205t182 80q90 0 149 -53v38zM305 93
q135 0 135 177q0 82 -32.5 129.5t-98.5 47.5q-69 0 -105 -49.5t-36 -127.5q0 -79 35 -128t102 -49z" />
    <glyph glyph-name="uni0122" unicode="&#x122;" horiz-adv-x="755" 
d="M714 378l1 -38q0 -147 -85 -248q-90 -107 -253 -107q-166 0 -256 118q-81 108 -81 257q0 160 81 259q94 116 256 116q138 0 219 -73q74 -61 99 -162l-131 -20q-16 50 -47 80q-51 51 -132 51q-106 0 -160 -74q-47 -61 -49 -177q2 -115 49 -177q26 -36 69 -55t91 -18
q79 -2 132 51q48 46 57 122h-150v95h290zM326 -182v117h116v-117q0 -47 -32.5 -76t-83.5 -29v53q11 0 24 3t26.5 15.5t13.5 33.5h-64z" />
    <glyph glyph-name="uni0123" unicode="&#x123;" horiz-adv-x="616" 
d="M376 717v-117h-116v117q0 47 32.5 76t83.5 29v-53q-11 0 -23.5 -3t-26.5 -15.5t-14 -33.5h64zM440 540h106v-566q0 -42 -7 -76q-18 -76 -82.5 -114t-159.5 -38q-68 0 -125.5 31t-89.5 85l112 55q29 -57 104 -57q58 0 93.5 30t34.5 86v52q-57 -43 -139 -43q-111 0 -179 81
t-68 204q0 125 69 205t182 80q90 0 149 -53v38zM305 93q135 0 135 177q0 82 -32.5 129.5t-98.5 47.5q-69 0 -105 -49.5t-36 -127.5q0 -79 35 -128t102 -49z" />
    <glyph glyph-name="Hbar" unicode="&#x126;" horiz-adv-x="742" 
d="M732 603v-120h-80v-483h-121v304h-341v-304h-120v483h-60v120h60v117h120v-117h341v117h121v-117h80zM531 417v66h-341v-66h341z" />
    <glyph glyph-name="hbar" unicode="&#x127;" horiz-adv-x="626" 
d="M500 500q22 -20 36.5 -47.5t20.5 -62.5t7.5 -61.5t1.5 -67.5v-261h-122v256q0 115 -43 155q-34 32 -90 31q-43 -2 -71 -25q-32 -25 -43 -75q-6 -31 -6 -107v-235h-121v583h-55v94h55v43h107v-43h105v-94h-105v-103q6 8 11 13q50 57 138 61q110 7 174 -54z" />
    <glyph glyph-name="Imacron" unicode="&#x12a;" 
d="M7 934h267v-94h-267v94zM80 720h120v-720h-120v720z" />
    <glyph glyph-name="imacron" unicode="&#x12b;" 
d="M7 754h267v-94h-267v94zM80 540v-540h120v540h-120z" />
    <glyph glyph-name="Iogonek" unicode="&#x12e;" 
d="M171 -133l44 -56q-17 -28 -48 -41q-33 -16 -69.5 -7t-59.5 39q-20 22 -24.5 57t8.5 69q19 44 58 80v712h120v-720q-34 -25 -53 -48q-26 -28 -38 -56q-10 -23 3 -36q11 -11 28 -8t31 15z" />
    <glyph glyph-name="iogonek" unicode="&#x12f;" 
d="M80 734h120v-110h-120v110zM80 540v-540h120v540h-120zM200 0q-34 -25 -53 -48q-26 -28 -38 -56q-10 -23 3 -36q11 -11 28 -8t31 15l44 -56q-17 -28 -48 -41q-33 -16 -69.5 -7t-59.5 39q-20 22 -24.5 57t8.5 69q18 43 55.5 78t84.5 54z" />
    <glyph glyph-name="Idotaccent" unicode="&#x130;" 
d="M79 950h123v-123h-123v123zM80 720h120v-720h-120v720z" />
    <glyph glyph-name="dotlessi" unicode="&#x131;" 
d="M80 540v-540h120v540h-120z" />
    <glyph glyph-name="uni0136" unicode="&#x136;" horiz-adv-x="649" 
d="M70 0v720h122v-334l288 334h148l-310 -353l331 -367h-153l-304 336v-336h-122zM410 -182q0 -47 -33 -76t-84 -29v53q11 0 24 3t26.5 15.5t13.5 33.5h-64v117h117v-117z" />
    <glyph glyph-name="uni0137" unicode="&#x137;" horiz-adv-x="539" 
d="M70 0l1 720h122v-440l197 260h151l-210 -270l228 -270h-160l-206 260v-260h-123zM357 -182q0 -47 -32.5 -76t-83.5 -29v53q11 0 24 3t26.5 15.5t13.5 33.5h-64v117h116v-117z" />
    <glyph glyph-name="Lacute" unicode="&#x139;" horiz-adv-x="533" 
d="M111 785l268 96l-31 88l-268 -96zM200 720h-120v-720h438v113h-318v607z" />
    <glyph glyph-name="lacute" unicode="&#x13a;" 
d="M12 785l267 96l-30 88l-269 -96zM80 0h120v735h-120v-735z" />
    <glyph glyph-name="uni013B" unicode="&#x13b;" horiz-adv-x="533" 
d="M200 720h-120v-720h438v113h-318v607zM358 -182q0 -47 -33 -76t-84 -29v53q11 0 24 3t26.5 15.5t13.5 33.5h-64v117h117v-117z" />
    <glyph glyph-name="uni013C" unicode="&#x13c;" 
d="M80 0h120v735h-120v-735zM192 -182q0 -47 -33 -76t-84 -29v53q11 0 24 3t27 15.5t14 33.5h-65v117h117v-117z" />
    <glyph glyph-name="Lcaron" unicode="&#x13d;" horiz-adv-x="533" 
d="M450 588q0 -66 -31.5 -99t-92.5 -23l7 52q33 -3 47.5 18t9.5 57h-64v129h124v-134zM200 720h-120v-720h438v113h-318v607z" />
    <glyph glyph-name="lcaron" unicode="&#x13e;" horiz-adv-x="438" 
d="M80 0h120v735h-120v-735zM405 588q0 -66 -31.5 -99t-92.5 -23l7 52q33 -3 47.5 18t9.5 57h-64v129h124v-134z" />
    <glyph glyph-name="Lslash" unicode="&#x141;" horiz-adv-x="550" 
d="M217 113h318v-113h-438v209l-65 -37v130l65 37v381h120v-312l158 91v-130l-158 -91v-165z" />
    <glyph glyph-name="lslash" unicode="&#x142;" horiz-adv-x="399" 
d="M371 531v-130l-101 -58v-343h-121v274l-122 -70v130l122 70v331h121v-262z" />
    <glyph glyph-name="Nacute" unicode="&#x143;" horiz-adv-x="718" 
d="M265 785l268 96l-31 88l-268 -96zM192 720l334 -507v507h122v-720h-122l-334 508v-508h-122v720h122z" />
    <glyph glyph-name="nacute" unicode="&#x144;" horiz-adv-x="626" 
d="M482 701l-268 -96l-31 88l268 96zM501 500q29 -27 44.5 -70.5t18 -78t2.5 -90.5v-261h-122v256q0 116 -43 155q-33 33 -90 31q-42 -2 -71 -25q-33 -27 -42 -75q-6 -26 -6 -106v-1v-235h-121v540h106v-61q4 4 12 14q49 57 138 61q110 7 174 -54z" />
    <glyph glyph-name="uni0145" unicode="&#x145;" horiz-adv-x="718" 
d="M192 720l334 -507v507h122v-720h-122l-334 508v-508h-122v720h122zM428 -182q0 -47 -33 -76t-84 -29v53q11 0 24 3t26.5 15.5t13.5 33.5h-64v117h117v-117z" />
    <glyph glyph-name="uni0146" unicode="&#x146;" horiz-adv-x="626" 
d="M501 500q29 -27 44.5 -70.5t18 -78t2.5 -90.5v-261h-122v256q0 116 -43 155q-33 33 -90 31q-42 -2 -71 -25q-33 -27 -42 -75q-6 -26 -6 -106v-1v-235h-121v540h106v-61q4 4 12 14q49 57 138 61q110 7 174 -54zM262 -182v117h117v-117q0 -47 -33 -76t-84 -29v53q11 0 24 3
t26.5 15.5t13.5 33.5h-64z" />
    <glyph glyph-name="Ncaron" unicode="&#x147;" horiz-adv-x="718" 
d="M243 962l-43 -82l170 -94l171 94l-44 82l-127 -69zM192 720l334 -507v507h122v-720h-122l-334 508v-508h-122v720h122z" />
    <glyph glyph-name="ncaron" unicode="&#x148;" horiz-adv-x="626" 
d="M502 700l-171 -94l-170 94l43 82l127 -69l127 69zM501 500q29 -27 44.5 -70.5t18 -78t2.5 -90.5v-261h-122v256q0 116 -43 155q-33 33 -90 31q-42 -2 -71 -25q-33 -27 -42 -75q-6 -26 -6 -106v-1v-235h-121v540h106v-61q4 4 12 14q49 57 138 61q110 7 174 -54z" />
    <glyph glyph-name="Eng" unicode="&#x14a;" horiz-adv-x="718" 
d="M526 720h122v-809q0 -57 -23.5 -92t-66.5 -44q-55 -11 -121 5v90q15 -2 21 -2.5t23 -0.5t25.5 4t20 10.5t16.5 20t5 32.5q0 25 -17 66h-5l-334 508v-508h-122v720h122l334 -507v507z" />
    <glyph glyph-name="eng" unicode="&#x14b;" horiz-adv-x="626" 
d="M501 500q29 -27 44.5 -70.5t18 -78t2.5 -90.5v-350q0 -56 -25.5 -91.5t-71.5 -44.5q-51 -10 -115 5v86q20 0 40 -1t35 16.5t15 54.5v320q0 116 -43 155q-33 33 -90 31q-42 -2 -71 -25q-33 -27 -42 -75q-6 -26 -6 -106v-1v-235h-121v540h106v-61q4 4 12 14q49 57 138 61
q110 7 174 -54z" />
    <glyph glyph-name="Omacron" unicode="&#x14c;" horiz-adv-x="769" 
d="M251 934h267v-94h-267v94zM385 -15q-158 0 -251.5 104.5t-93.5 270.5t93.5 271t251.5 104q159 -1 250 -102.5t94 -272.5q-2 -170 -94.5 -272.5t-249.5 -102.5zM385 99q106 -1 161.5 70t55.5 191q0 121 -55.5 190.5t-161.5 70.5q-105 1 -162.5 -71t-55.5 -190
q1 -122 56 -191t162 -70z" />
    <glyph glyph-name="omacron" unicode="&#x14d;" horiz-adv-x="618" 
d="M176 754h267v-94h-267v94zM309 -15q-121 0 -195 79.5t-74 205.5q0 127 74.5 206t194.5 79q121 0 195 -79.5t74 -205.5t-74.5 -205.5t-194.5 -79.5zM451 270q0 80 -36.5 126t-105.5 46q-70 0 -105.5 -46t-35.5 -126t36 -126t105 -46t105.5 47t36.5 125z" />
    <glyph glyph-name="Ohungarumlaut" unicode="&#x150;" horiz-adv-x="769" 
d="M327 791l122 120l-57 58l-122 -119zM490 791l121 120l-57 58l-121 -119zM385 -15q-158 0 -251.5 104.5t-93.5 270.5t93.5 271t251.5 104q159 -1 250 -102.5t94 -272.5q-2 -170 -94.5 -272.5t-249.5 -102.5zM385 99q106 -1 161.5 70t55.5 191q0 121 -55.5 190.5
t-161.5 70.5q-105 1 -162.5 -71t-55.5 -190q1 -122 56 -191t162 -70z" />
    <glyph glyph-name="ohungarumlaut" unicode="&#x151;" horiz-adv-x="618" 
d="M230 611l121 120l-57 58l-121 -119zM392 611l122 120l-57 58l-122 -119zM309 -15q-121 0 -195 79.5t-74 205.5q0 127 74.5 206t194.5 79q121 0 195 -79.5t74 -205.5t-74.5 -205.5t-194.5 -79.5zM451 270q0 80 -36.5 126t-105.5 46q-70 0 -105.5 -46t-35.5 -126t36 -126
t105 -46t105.5 47t36.5 125z" />
    <glyph glyph-name="OE" unicode="&#x152;" horiz-adv-x="1149" 
d="M1099 607h-344v-178h284v-112h-284v-204h344v-113h-465v87q-93 -102 -249 -102q-158 0 -251.5 104.5t-93.5 270.5t93.5 271t251.5 104q156 0 249 -102v87h465v-113zM385 99q106 -1 161.5 70t55.5 191q0 121 -55.5 190.5t-161.5 70.5q-105 1 -162.5 -71t-55.5 -190
q1 -122 56 -191t162 -70z" />
    <glyph glyph-name="oe" unicode="&#x153;" horiz-adv-x="1013" 
d="M580 236q8 -65 43.5 -101.5t96.5 -36.5q90 0 126 77l119 -36q-30 -72 -95.5 -113t-143.5 -41q-135 0 -212 91q-75 -91 -205 -91q-121 0 -195 79.5t-74 205.5q0 127 74.5 206t194.5 79q130 0 206 -92q75 92 205 92q129 0 195 -88t56 -231h-391zM720 450q-114 0 -137 -119
h265q-7 60 -36.5 89.5t-91.5 29.5zM309 98q69 0 105.5 47t36.5 125q0 80 -36.5 126t-105.5 46q-70 0 -105.5 -46t-35.5 -126t36 -126t105 -46z" />
    <glyph glyph-name="Racute" unicode="&#x154;" horiz-adv-x="640" 
d="M473 881l-267 -96l-31 88l268 96zM484 0l-122 251h-172v-251h-120v720h298q32 0 57 -4q91 -14 137.5 -75.5t46.5 -154.5q0 -74 -31 -130t-91 -83l133 -273h-136zM190 607v-243h173q27 0 45 5q41 10 60 43.5t19 73.5t-19 73t-60 43q-18 5 -45 5h-173z" />
    <glyph glyph-name="racute" unicode="&#x155;" horiz-adv-x="399" 
d="M369 701l-268 -96l-31 88l268 96zM231 512q60 42 143 28v-112q-59 17 -112 -13q-71 -41 -71 -147v-268h-121v540h107v-87q20 35 54 59z" />
    <glyph glyph-name="uni0156" unicode="&#x156;" horiz-adv-x="640" 
d="M487 273l133 -273h-136l-122 251h-172v-251h-120v720h298q32 0 57 -4q91 -14 137.5 -75.5t46.5 -154.5q0 -74 -31 -130t-91 -83zM190 607v-243h173q27 0 45 5q41 10 60 43.5t19 73.5t-19 73t-60 43q-18 5 -45 5h-173zM270 -182v117h117v-117q0 -47 -33 -76t-84 -29v53
q11 0 24 3t26.5 15.5t13.5 33.5h-64z" />
    <glyph glyph-name="uni0157" unicode="&#x157;" horiz-adv-x="399" 
d="M231 512q60 42 143 28v-112q-59 17 -112 -13q-71 -41 -71 -147v-268h-121v540h107v-87q20 35 54 59zM73 -182v117h116v-117q0 -47 -32.5 -76t-83.5 -29v53q11 0 24 3t26.5 15.5t13.5 33.5h-64z" />
    <glyph glyph-name="Rcaron" unicode="&#x158;" horiz-adv-x="640" 
d="M477 880l-170 -94l-171 94l44 82l127 -69l127 69zM484 0l-122 251h-172v-251h-120v720h298q32 0 57 -4q91 -14 137.5 -75.5t46.5 -154.5q0 -74 -31 -130t-91 -83l133 -273h-136zM190 607v-243h173q27 0 45 5q41 10 60 43.5t19 73.5t-19 73t-60 43q-18 5 -45 5h-173z" />
    <glyph glyph-name="rcaron" unicode="&#x159;" horiz-adv-x="399" 
d="M411 700l-170 -94l-171 94l44 82l127 -69l126 69zM231 512q60 42 143 28v-112q-59 17 -112 -13q-71 -41 -71 -147v-268h-121v540h107v-87q20 35 54 59z" />
    <glyph glyph-name="Sacute" unicode="&#x15a;" horiz-adv-x="641" 
d="M200 785l268 96l-31 88l-268 -96zM605 523l-129 -22q-12 59 -65 94q-43 26 -92 26q-51 1 -90 -21q-44 -28 -44 -69q0 -29 17 -46q21 -22 87 -42l126 -34q111 -32 148 -72q27 -29 37.5 -61t10.5 -79q0 -83 -75 -146q-77 -66 -208 -66q-149 0 -236 95q-50 57 -62 133
l125 19q13 -49 44 -80q54 -54 133 -54q74 0 115 32q38 29 38 70q0 35 -24 56q-20 18 -73 34l-134 39q-39 11 -58.5 17.5t-44.5 19.5t-42 29q-51 48 -51 132q0 100 84 159q68 49 179 49q90 -2 152 -36q106 -59 132 -176z" />
    <glyph glyph-name="sacute" unicode="&#x15b;" horiz-adv-x="542" 
d="M161 605l267 96l-30 88l-268 -96zM497 396l-123 -22q-4 34 -32 54.5t-70 22.5q-40 2 -67 -13t-27 -39q0 -21 14.5 -33.5t45.5 -22.5q9 -3 96 -26q86 -22 126.5 -58t40.5 -101q0 -81 -60.5 -127t-155.5 -46q-102 0 -166 42.5t-79 129.5l123 19q9 -42 43 -64t82 -22
q39 0 64.5 16t25.5 46q0 25 -18 38.5t-54 23.5q-109 30 -128 36q-56 16 -88 52t-32 91q0 77 61.5 119.5t149.5 42.5q92 0 155 -41.5t73 -117.5z" />
    <glyph glyph-name="Scedilla" unicode="&#x15e;" horiz-adv-x="641" 
d="M563 337q27 -29 37.5 -61t10.5 -79q0 -83 -75 -146q-70 -60 -185 -65l-9 -28q32 -16 48 -43q14 -25 12.5 -56.5t-17.5 -53.5q-35 -52 -99 -46q-28 3 -57 18l27 71q23 -7 31 -7q19 0 27 12q7 12 3 23q-2 10 -12.5 17.5t-20 10.5t-30.5 9l26 75q-116 13 -188 92
q-50 57 -62 133l125 19q13 -49 44 -80q54 -54 133 -54q74 0 115 32q38 29 38 70q0 35 -24 56q-20 18 -73 34l-134 39q-39 11 -58.5 17.5t-44.5 19.5t-42 29q-51 48 -51 132q0 100 84 159q68 49 179 49q90 -2 152 -36q106 -59 132 -176l-129 -22q-12 59 -65 94q-43 26 -92 26
q-51 1 -90 -21q-44 -28 -44 -69q0 -29 17 -46q21 -22 87 -42l126 -34q111 -32 148 -72z" />
    <glyph glyph-name="scedilla" unicode="&#x15f;" horiz-adv-x="542" 
d="M501 158q0 -74 -51 -119t-133 -53l-10 -28q33 -16 48 -43q15 -25 13.5 -56t-18.5 -54q-35 -52 -99 -46q-28 3 -57 18l27 71q23 -7 32 -7q19 0 26 12q8 11 4 23q-3 10 -13.5 17.5t-20 10.5t-30.5 9l25 74q-177 16 -204 170l123 19q9 -42 43 -64t82 -22q39 0 64.5 16
t25.5 46q0 25 -18 38.5t-54 23.5q-109 30 -128 36q-56 16 -88 52t-32 91q0 77 61.5 119.5t149.5 42.5q92 0 155 -41.5t73 -117.5l-123 -22q-4 34 -32 54.5t-70 22.5q-40 2 -67 -13t-27 -39q0 -21 14.5 -33.5t45.5 -22.5q9 -3 96 -26q86 -22 126.5 -58t40.5 -101z" />
    <glyph glyph-name="Scaron" unicode="&#x160;" horiz-adv-x="641" 
d="M193 962l-44 -82l171 -94l170 94l-44 82l-126 -69zM605 523l-129 -22q-12 59 -65 94q-43 26 -92 26q-51 1 -90 -21q-44 -28 -44 -69q0 -29 17 -46q21 -22 87 -42l126 -34q111 -32 148 -72q27 -29 37.5 -61t10.5 -79q0 -83 -75 -146q-77 -66 -208 -66q-149 0 -236 95
q-50 57 -62 133l125 19q13 -49 44 -80q54 -54 133 -54q74 0 115 32q38 29 38 70q0 35 -24 56q-20 18 -73 34l-134 39q-39 11 -58.5 17.5t-44.5 19.5t-42 29q-51 48 -51 132q0 100 84 159q68 49 179 49q90 -2 152 -36q106 -59 132 -176z" />
    <glyph glyph-name="scaron" unicode="&#x161;" horiz-adv-x="542" 
d="M152 782l-43 -82l170 -94l171 94l-44 82l-127 -69zM497 396l-123 -22q-4 34 -32 54.5t-70 22.5q-40 2 -67 -13t-27 -39q0 -21 14.5 -33.5t45.5 -22.5q9 -3 96 -26q86 -22 126.5 -58t40.5 -101q0 -81 -60.5 -127t-155.5 -46q-102 0 -166 42.5t-79 129.5l123 19
q9 -42 43 -64t82 -22q39 0 64.5 16t25.5 46q0 25 -18 38.5t-54 23.5q-109 30 -128 36q-56 16 -88 52t-32 91q0 77 61.5 119.5t149.5 42.5q92 0 155 -41.5t73 -117.5z" />
    <glyph glyph-name="uni0162" unicode="&#x162;" horiz-adv-x="607" 
d="M364 0h-23l-15 -42q33 -16 48 -43q15 -25 13.5 -56t-18.5 -54q-35 -52 -99 -46q-28 3 -57 18l27 71q23 -7 32 -7q18 0 26 12q8 11 4 23q-3 10 -13.5 17.5t-20 10.5t-30.5 9l30 87h-25v607h-233v113h587v-113h-233v-607z" />
    <glyph glyph-name="uni0163" unicode="&#x163;" horiz-adv-x="453" 
d="M228 446v-219q0 -79 11 -97q17 -29 59 -33q39 -3 89 4v-101q-58 -16 -134 -6l-13 -37q32 -16 48 -43q14 -25 12.5 -56t-17.5 -54q-36 -52 -99 -46q-28 3 -57 18l27 71q23 -7 31 -7q20 0 26 12q8 11 4 23q-3 10 -13 17t-19.5 10.5t-30.5 9.5l34 100q-32 15 -56 52
q-7 10 -11 22.5t-6.5 22.5t-3.5 27t-1 25.5v30v29.5v225h-98v94h98v150h120v-150h159v-94h-159z" />
    <glyph glyph-name="Tcaron" unicode="&#x164;" horiz-adv-x="607" 
d="M474 880l-171 -94l-170 94l44 82l126 -69l127 69zM597 720v-113h-233v-607h-121v607h-233v113h587z" />
    <glyph glyph-name="tcaron" unicode="&#x165;" horiz-adv-x="433" 
d="M340 859h123v-133q0 -67 -31 -99.5t-92 -22.5l7 51q33 -2 47.5 19t9.5 57h-64v128zM228 690v-150h159v-94h-159v-219q0 -79 11 -97q17 -29 59 -33q39 -3 89 4v-101q-68 -18 -148 -4q-38 6 -63.5 21.5t-45.5 46.5q-7 10 -11 22.5t-6.5 22.5t-3.5 27t-1 25.5v30v29.5v225
h-98v94h98v150h120z" />
    <glyph glyph-name="Tbar" unicode="&#x166;" horiz-adv-x="607" 
d="M597 607h-233v-187h174v-120h-174v-300h-121v300h-175v120h175v187h-233v113h587v-113z" />
    <glyph glyph-name="tbar" unicode="&#x167;" horiz-adv-x="453" 
d="M228 232v-5q0 -79 11 -97q17 -29 59 -33q39 -3 89 4v-101q-68 -18 -148 -4q-38 6 -63.5 21.5t-45.5 46.5q-7 10 -11 22.5t-6.5 22.5t-3.5 27t-1 25.5v30v29.5v11h-98v94h98v120h-98v94h98v150h120v-150h159v-94h-159v-120h175v-94h-175z" />
    <glyph glyph-name="Umacron" unicode="&#x16a;" horiz-adv-x="720" 
d="M227 934h266v-94h-266v94zM650 720v-453q0 -35 -8 -73q-23 -98 -99 -153.5t-182 -55.5q-109 0 -185.5 55t-97.5 153q-8 32 -8 74v452l122 1v-442q0 -36 6 -61q14 -53 59.5 -86t103.5 -33t103.5 36t58.5 90q5 21 5 54v442h122z" />
    <glyph glyph-name="umacron" unicode="&#x16b;" horiz-adv-x="626" 
d="M441 754v-94h-267v94h267zM434 540h122v-540h-107v61q-4 -4 -12 -14q-49 -57 -138 -61q-109 -7 -174 54q-29 27 -44.5 70.5t-18 78t-2.5 90.5v261h122v-256q0 -116 43 -155q33 -33 90 -31q40 1 71 25q33 27 42 75q6 26 6 106v1v235z" />
    <glyph glyph-name="Uring" unicode="&#x16e;" horiz-adv-x="720" 
d="M360 997q60 0 103 -43t43 -103t-43 -103t-103 -43t-103 43t-43 103t43 103t103 43zM360 911q-25 0 -42.5 -17.5t-17.5 -42.5t17.5 -42.5t42.5 -17.5t42.5 17.5t17.5 42.5t-17.5 42.5t-42.5 17.5zM650 720v-453q0 -35 -8 -73q-23 -98 -99 -153.5t-182 -55.5
q-109 0 -185.5 55t-97.5 153q-8 32 -8 74v452l122 1v-442q0 -36 6 -61q14 -53 59.5 -86t103.5 -33t103.5 36t58.5 90q5 21 5 54v442h122z" />
    <glyph glyph-name="uring" unicode="&#x16f;" horiz-adv-x="626" 
d="M308 566q-60 0 -103 43t-43 103t43 103t103 43t102.5 -43t42.5 -103t-42.5 -103t-102.5 -43zM308 772q-25 0 -42.5 -17.5t-17.5 -42.5t17.5 -42.5t42.5 -17.5t42.5 17.5t17.5 42.5t-17.5 42.5t-42.5 17.5zM434 540h122v-540h-107v61q-4 -4 -12 -14q-49 -57 -138 -61
q-109 -7 -174 54q-29 27 -44.5 70.5t-18 78t-2.5 90.5v261h122v-256q0 -116 43 -155q33 -33 90 -31q40 1 71 25q33 27 42 75q6 26 6 106v1v235z" />
    <glyph glyph-name="Uhungarumlaut" unicode="&#x170;" horiz-adv-x="720" 
d="M281 791l121 120l-57 58l-121 -119zM443 791l122 120l-57 58l-122 -119zM650 720v-453q0 -35 -8 -73q-23 -98 -99 -153.5t-182 -55.5q-109 0 -185.5 55t-97.5 153q-8 32 -8 74v452l122 1v-442q0 -36 6 -61q14 -53 59.5 -86t103.5 -33t103.5 36t58.5 90q5 21 5 54v442h122
z" />
    <glyph glyph-name="uhungarumlaut" unicode="&#x171;" horiz-adv-x="626" 
d="M345 731l-122 -120l-57 59l122 119zM386 611l-57 59l121 119l57 -58zM434 540h122v-540h-107v61q-4 -4 -12 -14q-49 -57 -138 -61q-109 -7 -174 54q-29 27 -44.5 70.5t-18 78t-2.5 90.5v261h122v-256q0 -116 43 -155q33 -33 90 -31q40 1 71 25q33 27 42 75q6 26 6 106v1
v235z" />
    <glyph glyph-name="Uogonek" unicode="&#x172;" horiz-adv-x="720" 
d="M528 720h122v-453q0 -35 -8 -73q-25 -108 -113 -164q-66 -58 -80 -76q-29 -42 -36 -58q-10 -23 3 -36q11 -11 28 -8t31 15l44 -56q-17 -28 -48 -41q-33 -16 -69.5 -7t-59.5 39q-20 22 -24.5 57t8.5 69q13 28 35 57q-109 0 -185.5 55t-97.5 153q-8 32 -8 74v452l122 1
v-442q0 -36 6 -61q14 -53 59.5 -86t103.5 -33t103.5 36t58.5 90q5 21 5 54v442z" />
    <glyph glyph-name="uogonek" unicode="&#x173;" horiz-adv-x="626" 
d="M517 -133l43 -56q-16 -28 -47 -41q-34 -16 -70.5 -7t-59.5 39q-20 22 -24.5 57t9.5 69q24 58 81 99v34q-4 -4 -12 -14q-49 -57 -138 -61q-109 -7 -174 54q-29 27 -44.5 70.5t-18 78t-2.5 90.5v261h122v-256q0 -116 43 -155q33 -33 90 -31q40 1 71 25q33 27 42 75
q6 26 6 106v1v235h122v-540h-10q-34 -24 -54 -48q-26 -28 -38 -56q-7 -26 3 -36q12 -11 28.5 -8t31.5 15z" />
    <glyph glyph-name="Wcircumflex" unicode="&#x174;" horiz-adv-x="976" 
d="M362 786l126 69l127 -69l44 83l-171 93l-170 -93zM838 720h126l-210 -720h-119l-148 512l-146 -512h-119l-210 720h126l143 -520l143 519l126 1l144 -520z" />
    <glyph glyph-name="wcircumflex" unicode="&#x175;" horiz-adv-x="802" 
d="M274 606l127 69l127 -69l44 83l-171 93l-170 -93zM664 540h118l-165 -540h-101l-115 372l-122 -372h-94l-165 541l119 -1l106 -346l106 346h101l107 -346z" />
    <glyph glyph-name="Ycircumflex" unicode="&#x176;" horiz-adv-x="612" 
d="M179 786l127 69l127 -69l43 83l-170 93l-171 -93zM471 720h141l-245 -425v-295h-122v295l-245 425h141l165 -287z" />
    <glyph glyph-name="ycircumflex" unicode="&#x177;" horiz-adv-x="559" 
d="M288 675l-127 -69l-44 83l171 93l170 -93l-44 -83zM434 540h121l-301 -780l-113 1l88 239l1 4l-218 536h125l151 -385z" />
    <glyph glyph-name="Ydieresis" unicode="&#x178;" horiz-adv-x="612" 
d="M148 950h110v-110h-110v110zM354 950h110v-110h-110v110zM471 720h141l-245 -425v-295h-122v295l-245 425h141l165 -287z" />
    <glyph glyph-name="Zacute" unicode="&#x179;" horiz-adv-x="664" 
d="M232 785l267 96l-30 88l-269 -96zM261 114h344v-114h-555v17l355 590h-330v113h539v-17z" />
    <glyph glyph-name="zacute" unicode="&#x17a;" horiz-adv-x="534" 
d="M173 605l268 96l-31 88l-268 -96zM481 106v-106h-461v17l286 417h-257v106h445v-17l-285 -417h272z" />
    <glyph glyph-name="Zdotaccent" unicode="&#x17b;" horiz-adv-x="664" 
d="M287 950h123v-123h-123v123zM261 114h344v-114h-555v17l355 590h-330v113h539v-17z" />
    <glyph glyph-name="zdotaccent" unicode="&#x17c;" horiz-adv-x="534" 
d="M216 770h123v-123h-123v123zM481 106v-106h-461v17l286 417h-257v106h445v-17l-285 -417h272z" />
    <glyph glyph-name="Zcaron" unicode="&#x17d;" horiz-adv-x="664" 
d="M213 962l-43 -82l170 -94l171 94l-44 82l-127 -69zM261 114h344v-114h-555v17l355 590h-330v113h539v-17z" />
    <glyph glyph-name="zcaron" unicode="&#x17e;" horiz-adv-x="534" 
d="M150 782l-44 -82l171 -94l170 94l-43 82l-127 -69zM481 106v-106h-461v17l286 417h-257v106h445v-17l-285 -417h272z" />
    <glyph glyph-name="florin" unicode="&#x192;" horiz-adv-x="752" 
d="M555 735q75 0 137 -32l-55 -99q-1 1 -10 5t-27 8t-36 4q-36 0 -67 -20.5t-38 -61.5l-22 -131h184v-95h-200l-19 -113q-16 -104 -70.5 -159.5t-139.5 -55.5q-64 0 -132 31l51 101q34 -18 74 -18q76 0 96 118l16 96h-144v95h160l17 106q32 221 225 221z" />
    <glyph glyph-name="uni0218" unicode="&#x218;" horiz-adv-x="641" 
d="M605 523l-129 -22q-12 59 -65 94q-43 26 -92 26q-51 1 -90 -21q-44 -28 -44 -69q0 -29 17 -46q21 -22 87 -42l126 -34q111 -32 148 -72q27 -29 37.5 -61t10.5 -79q0 -83 -75 -146q-77 -66 -208 -66q-149 0 -236 95q-50 57 -62 133l125 19q13 -49 44 -80q54 -54 133 -54
q74 0 115 32q38 29 38 70q0 35 -24 56q-20 18 -73 34l-134 39q-39 11 -58.5 17.5t-44.5 19.5t-42 29q-51 48 -51 132q0 100 84 159q68 49 179 49q90 -2 152 -36q106 -59 132 -176zM381 -182q0 -47 -33 -76t-84 -29v53q11 0 24 3t26.5 15.5t13.5 33.5h-64v117h117v-117z" />
    <glyph glyph-name="uni0219" unicode="&#x219;" horiz-adv-x="542" 
d="M497 396l-123 -22q-4 34 -32 54.5t-70 22.5q-40 2 -67 -13t-27 -39q0 -21 14.5 -33.5t45.5 -22.5q9 -3 96 -26q86 -22 126.5 -58t40.5 -101q0 -81 -60.5 -127t-155.5 -46q-102 0 -166 42.5t-79 129.5l123 19q9 -42 43 -64t82 -22q39 0 64.5 16t25.5 46q0 25 -18 38.5
t-54 23.5q-109 30 -128 36q-56 16 -88 52t-32 91q0 77 61.5 119.5t149.5 42.5q92 0 155 -41.5t73 -117.5zM336 -182q0 -47 -33 -76t-84 -29v53q11 0 24 3t27 15.5t14 33.5h-65v117h117v-117z" />
    <glyph glyph-name="uni021A" unicode="&#x21a;" horiz-adv-x="607" 
d="M597 720v-113h-233v-607h-121v607h-233v113h587zM245 -182v117h117v-117q0 -47 -33 -76t-84 -29v53q11 0 24 3t26.5 15.5t13.5 33.5h-64z" />
    <glyph glyph-name="uni021B" unicode="&#x21b;" horiz-adv-x="433" 
d="M228 446v-219q0 -79 11 -97q17 -29 59 -33q39 -3 89 4v-101q-68 -18 -148 -4q-38 6 -63.5 21.5t-45.5 46.5q-7 10 -11 22.5t-6.5 22.5t-3.5 27t-1 25.5v30v29.5v225h-98v94h98v150h120v-150h159v-94h-159zM181 -182v117h117v-117q0 -47 -33 -76t-84 -29v53q11 0 24 3
t27 15.5t14 33.5h-65z" />
    <glyph glyph-name="alpha" unicode="&#x3b1;" horiz-adv-x="643" 
d="M578 204q0 -19 1.5 -32t6.5 -28t17 -22.5t30 -6.5v-115q-108 -33 -151 44q-70 -59 -173 -59q-121 0 -195 79.5t-74 205.5q0 127 74.5 206t194.5 79q95 0 163 -51v36h106v-336zM309 98q69 0 105.5 47t36.5 125q0 80 -36.5 126t-105.5 46q-70 0 -105.5 -46t-35.5 -126
t36 -126t105 -46z" />
    <glyph glyph-name="beta" unicode="&#x3b2;" horiz-adv-x="613" 
d="M456 398q52 -19 85.5 -69t33.5 -117q0 -107 -69.5 -167t-187.5 -60q-74 0 -127 22v-247h-121v780q1 33 9 60q22 68 79.5 101.5t134.5 33.5q95 0 159.5 -57.5t64.5 -145.5t-61 -134zM320 97q60 0 97 32t37 85q0 57 -43 86t-118 29v105q48 4 75 28.5t27 67.5q0 42 -29.5 67
t-72.5 25q-65 0 -89 -49q-12 -27 -12 -75v-276q0 -41 7 -61q28 -64 121 -64z" />
    <glyph glyph-name="uni03BC" unicode="&#x3bc;" horiz-adv-x="630" 
d="M566 212q0 -21 0.5 -33t3.5 -26.5t8.5 -21.5t16 -12t25.5 -4v-115q-84 -37 -125 36q-62 -57 -169 -50q-88 4 -138 61q-5 5 -11 13v-240h-107v720h121v-235q0 -76 6 -107q11 -50 43 -75q30 -24 71 -25q56 -1 90 31q43 40 43 155v256h122v-328z" />
    <glyph glyph-name="uni0400" unicode="&#x400;" horiz-adv-x="585" 
d="M455 873l-31 -88l-267 96l30 88zM535 607h-345v-178h285v-112h-285v-204h345v-113h-465v720h465v-113z" />
    <glyph glyph-name="uni0401" unicode="&#x401;" horiz-adv-x="585" 
d="M251 950v-110h-110v110h110zM458 950v-110h-110v110h110zM535 607h-345v-178h285v-112h-285v-204h345v-113h-465v720h465v-113z" />
    <glyph glyph-name="uni0402" unicode="&#x402;" horiz-adv-x="676" 
d="M373 555q126 0 194.5 -69t68.5 -192q0 -294 -268 -294v122q146 0 146 164q0 78 -41.5 115.5t-111.5 37.5q-61 0 -100 -24.5t-51 -66.5q-10 -38 -10 -87v-261h-122v613h-78v107h345v-107h-160v-124q71 66 188 66z" />
    <glyph glyph-name="uni0403" unicode="&#x403;" horiz-adv-x="545" 
d="M419 881l-268 -96l-31 88l268 96zM535 720v-113h-345v-607h-120v720h465z" />
    <glyph glyph-name="uni0404" unicode="&#x404;" horiz-adv-x="753" 
d="M543 175q21 28 34 67l118 -29q-29 -99 -98 -156q-82 -72 -220 -72q-164 0 -255 117q-82 106 -82 258q0 162 81 259q94 116 256 116q138 0 219 -73q79 -66 104 -174l-121 -17q-12 41 -36 74q-57 74 -158 76q-51 1 -95 -19t-71 -57q-39 -49 -49 -125h256v-120h-255
q10 -78 48 -125q54 -74 166 -76q100 -2 158 76z" />
    <glyph glyph-name="uni0405" unicode="&#x405;" horiz-adv-x="641" 
d="M605 523l-129 -22q-12 59 -65 94q-43 26 -92 26q-51 1 -90 -21q-44 -28 -44 -69q0 -29 17 -46q21 -22 87 -42l126 -34q111 -32 148 -72q27 -29 37.5 -61t10.5 -79q0 -83 -75 -146q-77 -66 -208 -66q-149 0 -236 95q-50 57 -62 133l125 19q13 -49 44 -80q54 -54 133 -54
q74 0 115 32q38 29 38 70q0 35 -24 56q-20 18 -73 34l-134 39q-39 11 -58.5 17.5t-44.5 19.5t-42 29q-51 48 -51 132q0 100 84 159q68 49 179 49q90 -2 152 -36q106 -59 132 -176z" />
    <glyph glyph-name="uni0406" unicode="&#x406;" 
d="M80 720h120v-720h-120v720z" />
    <glyph glyph-name="uni0407" unicode="&#x407;" 
d="M-18 950h110v-110h-110v110zM189 950h110v-110h-110v110zM80 720h120v-720h-120v720z" />
    <glyph glyph-name="uni0408" unicode="&#x408;" horiz-adv-x="501" 
d="M421 720h-122v-485q0 -67 -10 -89q-9 -23 -32.5 -35.5t-47.5 -12.5q-32 0 -58.5 22t-31.5 53l-119 -29q21 -72 77 -115.5t132 -43.5q128 0 188 98q5 9 9 18.5t6.5 16t4 18t2.5 16t1.5 19t0.5 18v22.5v24v485z" />
    <glyph glyph-name="uni0409" unicode="&#x409;" horiz-adv-x="1091" 
d="M877 465q90 -15 137 -77t47 -154t-46.5 -154t-137.5 -76q-25 -4 -57 -4h-298v607h-250q-17 -253 -46 -413q-6 -32 -12 -56.5t-15.5 -49t-20.5 -39.5t-27 -30t-36 -19t-46.5 -6.5t-58.5 6.5v101q48 -4 69 25.5t35 113.5q33 188 47 480h481v-251h178q32 0 57 -4zM860 118
q41 10 60 43t19 73t-19 73.5t-60 43.5q-18 5 -45 5h-173v-243h173q27 0 45 5z" />
    <glyph glyph-name="uni040A" unicode="&#x40a;" horiz-adv-x="1093" 
d="M880 465q90 -15 136.5 -76.5t46.5 -154.5q0 -92 -46 -154t-137 -76q-25 -4 -58 -4h-297v355h-335v-355h-120v720h120v-252h335v252h120v-251h177q33 0 58 -4zM863 118q41 10 59.5 43t18.5 73t-18.5 73.5t-59.5 43.5q-19 5 -46 5h-172v-243h172q27 0 46 5z" />
    <glyph glyph-name="uni040B" unicode="&#x40b;" horiz-adv-x="676" 
d="M554 393q33 -42 42.5 -88.5t9.5 -117.5v-187h-122v161q0 107 -35 153q-39 51 -121 51q-90 0 -137 -42v-323h-121v613h-70v107h345v-107h-154v-178q62 47 155 47q137 0 208 -89z" />
    <glyph glyph-name="uni040C" unicode="&#x40c;" horiz-adv-x="649" 
d="M229 785l267 96l-30 88l-268 -96zM70 0v720h122v-334l288 334h148l-310 -353l331 -367h-153l-304 336v-336h-122z" />
    <glyph glyph-name="uni040D" unicode="&#x40d;" horiz-adv-x="718" 
d="M485 785l31 88l-268 96l-31 -88zM526 720h122v-720h-122v508l-334 -508h-122v720h122v-507z" />
    <glyph glyph-name="uni040E" unicode="&#x40e;" horiz-adv-x="637" 
d="M387 932h94q0 -63 -44.5 -107.5t-107.5 -44.5t-107 44.5t-44 107.5h94q0 -24 16.5 -41t40.5 -17t41 17t17 41zM508 720h124l-338 -720h-127l94 185l-249 535h122l185 -410z" />
    <glyph glyph-name="uni040F" unicode="&#x40f;" horiz-adv-x="768" 
d="M578 720h120v-720h-254v-120h-120v120h-254v720h120v-607h388v607z" />
    <glyph glyph-name="uni0410" unicode="&#x410;" horiz-adv-x="671" 
d="M527 0l-50 156h-284l-49 -156h-124l227 720h177l227 -720h-124zM229 269h212l-107 334z" />
    <glyph glyph-name="uni0411" unicode="&#x411;" horiz-adv-x="639" 
d="M425 449q88 -10 136 -72t48 -151t-48 -151t-136 -72q-29 -3 -57 -3h-298v720h482v-113h-362v-155h178q28 0 57 -3zM408 117q42 9 60.5 39.5t18.5 69.5t-18.5 70t-60.5 39q-19 4 -45 4h-173v-226h173q26 0 45 4z" />
    <glyph glyph-name="uni0412" unicode="&#x412;" horiz-adv-x="639" 
d="M547 346q25 -23 40 -58.5t14 -72.5q0 -103 -59 -159q-32 -32 -70 -44t-103 -12h-299v720h285q95 0 152 -54q59 -55 61 -147q1 -36 -12.5 -68t-36.5 -52q-8 -8 -26 -20q30 -12 54 -33zM354 607h-162v-174h162q46 0 73 30q18 21 18 58q0 38 -24 62t-67 24zM450 144
q29 28 29 71q0 45 -25 73q-29 32 -81 32h-181v-206h178q49 0 80 30z" />
    <glyph glyph-name="uni0413" unicode="&#x413;" horiz-adv-x="545" 
d="M535 720v-113h-345v-607h-120v720h465z" />
    <glyph glyph-name="uni0414" unicode="&#x414;" horiz-adv-x="761" 
d="M666 95h55v-183h-121v88h-440v-88h-120v183q69 49 112 244q6 26 10.5 50t8 55.5t6 47.5t5.5 56.5t4 51t4 62t4 59.5l472 -1v-625zM546 95v531h-242q-12 -182 -40 -309q-33 -152 -79 -222h361z" />
    <glyph glyph-name="uni0415" unicode="&#x415;" horiz-adv-x="585" 
d="M535 607h-345v-178h285v-112h-285v-204h345v-113h-465v720h465v-113z" />
    <glyph glyph-name="uni0416" unicode="&#x416;" horiz-adv-x="1021" 
d="M10 0l244 375l-95 180q-18 34 -50 46q-25 10 -64 7l-10 112q62 24 129 -6q54 -24 93 -101l100 -191h92v298h123v-298h93l99 191q39 77 93 101q68 31 129 6l-9 -112q-40 3 -65 -7q-30 -11 -50 -46l-95 -180l244 -375h-146l-205 327h-88v-327h-123v327h-88l-205 -327h-146z
" />
    <glyph glyph-name="uni0417" unicode="&#x417;" horiz-adv-x="660" 
d="M67 626q41 41 103 73q75 36 162 36q117 0 188 -53q81 -58 81 -159q0 -50 -25 -88q-13 -30 -43 -60q35 -22 55 -53q32 -42 32 -114q0 -49 -26 -96t-68 -76q-71 -51 -191 -51q-108 0 -177 38q-75 42 -118 116l90 69q29 -48 81 -80q53 -30 123 -30q67 0 106 24q53 33 52 87
q0 47 -33 73q-31 26 -106 31q-36 2 -109 2v114q73 0 109 2q63 3 89 24q32 25 30 67q0 42 -34 70q-38 30 -108 30q-54 0 -112 -28q-43 -22 -76 -55z" />
    <glyph glyph-name="uni0418" unicode="&#x418;" horiz-adv-x="718" 
d="M526 720h122v-720h-122v508l-334 -508h-122v720h122v-507z" />
    <glyph glyph-name="uni0419" unicode="&#x419;" horiz-adv-x="718" 
d="M439 932h94q0 -63 -44 -107.5t-107 -44.5t-107.5 44.5t-44.5 107.5h94q0 -24 17 -41t41 -17t40.5 17t16.5 41zM526 720h122v-720h-122v508l-334 -508h-122v720h122v-507z" />
    <glyph glyph-name="uni041A" unicode="&#x41a;" horiz-adv-x="649" 
d="M70 0v720h122v-334l288 334h148l-310 -353l331 -367h-153l-304 336v-336h-122z" />
    <glyph glyph-name="uni041B" unicode="&#x41b;" horiz-adv-x="722" 
d="M652 720v-720h-120v607h-250q-17 -253 -46 -413q-6 -32 -12 -56.5t-15.5 -49t-20.5 -39.5t-27 -30t-36 -19t-46.5 -6.5t-58.5 6.5v101q48 -4 69 25.5t35 113.5q33 188 47 480h481z" />
    <glyph glyph-name="uni041C" unicode="&#x41c;" horiz-adv-x="855" 
d="M785 720v-720h-113v462l-220 -462h-48l-221 461v-461h-113v720h108l250 -510l249 510h108z" />
    <glyph glyph-name="uni041D" unicode="&#x41d;" horiz-adv-x="722" 
d="M531 720h121v-720h-121v304h-341v-304h-120v720h120v-303h341v303z" />
    <glyph glyph-name="uni041E" unicode="&#x41e;" horiz-adv-x="769" 
d="M385 -15q-158 0 -251.5 104.5t-93.5 270.5t93.5 271t251.5 104q159 -1 250 -102.5t94 -272.5q-2 -170 -94.5 -272.5t-249.5 -102.5zM385 99q106 -1 161.5 70t55.5 191q0 121 -55.5 190.5t-161.5 70.5q-105 1 -162.5 -71t-55.5 -190q1 -122 56 -191t162 -70z" />
    <glyph glyph-name="uni041F" unicode="&#x41f;" horiz-adv-x="768" 
d="M698 720v-720h-120v607h-388v-607h-120v720h628z" />
    <glyph glyph-name="uni0420" unicode="&#x420;" horiz-adv-x="639" 
d="M425 716q91 -14 137.5 -75.5t46.5 -154.5q0 -92 -47 -154t-137 -77q-25 -4 -57 -4h-178v-251h-120v720h298q32 0 57 -4zM408 369q41 10 60 43.5t19 73.5t-19 73t-60 43q-18 5 -45 5h-173v-243h173q27 0 45 5z" />
    <glyph glyph-name="uni0421" unicode="&#x421;" horiz-adv-x="731" 
d="M577 242l118 -29q-29 -97 -98 -156q-83 -72 -220 -72q-164 0 -255 117q-82 106 -82 258q0 162 81 259q94 116 256 116q136 0 219 -73q77 -66 104 -174l-121 -17q-12 41 -36 74q-57 74 -158 76q-51 1 -95 -19t-71 -57q-54 -67 -52 -185q2 -121 52 -185q54 -74 166 -76
q100 -2 158 76q21 28 34 67z" />
    <glyph glyph-name="uni0422" unicode="&#x422;" horiz-adv-x="607" 
d="M597 720v-113h-233v-607h-121v607h-233v113h587z" />
    <glyph glyph-name="uni0423" unicode="&#x423;" horiz-adv-x="637" 
d="M508 720h124l-338 -720h-127l94 185l-249 535h122l185 -410z" />
    <glyph glyph-name="uni0424" unicode="&#x424;" horiz-adv-x="775" 
d="M621 610q56 -39 85.5 -99t28.5 -130q2 -149 -115 -229q-73 -49 -173 -59v-93h-119v93q-100 10 -173 59q-115 82 -115 229q0 149 114 229q73 50 174 62v48h119v-48q99 -10 174 -62zM550 255q58 41 58 126q0 84 -59 124q-40 29 -102 39v-329q62 10 103 40zM225 255
q39 -29 103 -39v328q-65 -12 -102 -39q-58 -40 -58 -124q0 -86 57 -126z" />
    <glyph glyph-name="uni0425" unicode="&#x425;" horiz-adv-x="656" 
d="M403 364l243 -364h-148l-169 262l-171 -262h-148l244 364l-237 356h147l165 -253l162 253h149z" />
    <glyph glyph-name="uni0426" unicode="&#x426;" horiz-adv-x="750" 
d="M660 107h80v-195h-120v88h-550v720h120v-613h350v596h120v-596z" />
    <glyph glyph-name="uni0427" unicode="&#x427;" horiz-adv-x="676" 
d="M485 720h121v-720h-121v285q-61 -47 -155 -47q-138 0 -207 89q-33 43 -43 89.5t-10 117.5v186h122v-161q0 -107 35 -153q40 -51 121 -51q92 0 137 42v323z" />
    <glyph glyph-name="uni0428" unicode="&#x428;" horiz-adv-x="947" 
d="M756 720h121v-720h-807v720h120v-607h223v607h121v-607h222v607z" />
    <glyph glyph-name="uni0429" unicode="&#x429;" horiz-adv-x="967" 
d="M877 107h80v-195h-121v88h-766v720h120v-607h223v607h121v-607h222v607h121v-613z" />
    <glyph glyph-name="uni042A" unicode="&#x42a;" horiz-adv-x="650" 
d="M444 465q90 -15 136.5 -76.5t46.5 -154.5q0 -92 -46.5 -154t-136.5 -76q-25 -4 -58 -4h-298v626h-98v94h219v-251h177q33 0 58 -4zM427 118q41 10 59.5 43t18.5 73t-18.5 73.5t-59.5 43.5q-19 5 -46 5h-172v-243h172q27 0 46 5z" />
    <glyph glyph-name="uni042B" unicode="&#x42b;" horiz-adv-x="861" 
d="M425 465q90 -15 137 -77t47 -154t-46.5 -154t-137.5 -76q-25 -4 -57 -4h-298v720h120v-251h178q32 0 57 -4zM670 720h121v-720h-121v720zM408 118q41 10 60 43t19 73t-19 73.5t-60 43.5q-17 5 -45 5h-173v-243h173q27 0 45 5z" />
    <glyph glyph-name="uni042C" unicode="&#x42c;" horiz-adv-x="639" 
d="M425 465q90 -15 137 -77t47 -154t-46.5 -154t-137.5 -76q-25 -4 -57 -4h-298v720h120v-251h178q32 0 57 -4zM408 118q41 10 60 43t19 73t-19 73.5t-60 43.5q-17 5 -45 5h-173v-243h173q27 0 45 5z" />
    <glyph glyph-name="uni042D" unicode="&#x42d;" horiz-adv-x="753" 
d="M632 619q81 -97 81 -259q0 -152 -82 -258q-91 -117 -255 -117q-137 0 -220 72q-69 59 -98 156l118 29q13 -39 34 -67q58 -78 158 -76q112 2 166 76q38 47 48 125h-255v120h256q-10 76 -49 125q-27 37 -71 57t-95 19q-101 -2 -158 -76q-24 -33 -36 -74l-121 17
q27 108 104 174q83 73 219 73q162 0 256 -116z" />
    <glyph glyph-name="uni042E" unicode="&#x42e;" horiz-adv-x="1049" 
d="M665 735q159 -1 250 -102.5t94 -272.5q-2 -170 -94.5 -272.5t-249.5 -102.5q-142 0 -233 86.5t-109 228.5h-133v-300h-120v720h120v-300h133q17 142 108 229t234 86zM665 99q106 -1 161.5 70t55.5 191q0 121 -55.5 190.5t-161.5 70.5q-105 1 -162.5 -71t-55.5 -190
q1 -122 56 -191t162 -70z" />
    <glyph glyph-name="uni042F" unicode="&#x42f;" horiz-adv-x="640" 
d="M570 720v-720h-120v251h-171l-122 -251h-137l133 273q-121 55 -121 213q0 93 46 154.5t137 75.5q25 4 58 4h297zM278 364h172v243h-172q-28 0 -46 -5q-41 -10 -60 -43t-19 -73t19 -73.5t60 -43.5q17 -5 46 -5z" />
    <glyph glyph-name="uni0430" unicode="&#x430;" horiz-adv-x="576" 
d="M516 0h-105v71q-36 -45 -80.5 -65.5t-112.5 -20.5q-81 0 -129.5 46t-48.5 122q0 108 104 149q17 7 38.5 13t37 9.5t45 8.5l41 7t47.5 7t44 6q-4 47 -34 69.5t-75 22.5q-91 0 -120 -75l-109 34q27 67 87.5 109t145.5 42q170 0 213 -135q11 -39 11 -95v-325zM378 152
q19 35 19 102q-114 -17 -164 -30q-75 -22 -75 -74q0 -29 23 -49.5t64 -20.5q42 0 78 20t55 52z" />
    <glyph glyph-name="uni0431" unicode="&#x431;" horiz-adv-x="598" 
d="M313 506q118 0 184 -82q61 -73 61 -181q3 -108 -70 -186q-75 -75 -193 -72q-116 0 -188 83q-60 69 -65 183q-6 112 8 210q21 138 114 204q79 55 230 55q56 0 120 -11v-111q-68 9 -120 10q-121 2 -165 -31q-50 -34 -62 -132q61 59 146 61zM300 399q-64 0 -99 -42
q-32 -36 -32 -105q0 -71 32 -107q34 -41 99 -41t99 41q32 36 32 106t-32 106q-34 42 -99 42z" />
    <glyph glyph-name="uni0432" unicode="&#x432;" horiz-adv-x="560" 
d="M70 540h245q52 0 90 -11q41 -11 69.5 -46.5t28.5 -88.5q0 -63 -40 -95q-14 -13 -35 -20q22 -4 37 -12q65 -31 65 -108q0 -120 -103 -149q-36 -10 -92 -10h-265v540zM192 446v-129h100q36 0 55 8q32 14 32 57q0 46 -36 58q-23 6 -53 6h-98zM192 222v-129h135q24 0 45 8
q35 12 35 58q0 45 -42 58q-12 5 -41 5h-132z" />
    <glyph glyph-name="uni0433" unicode="&#x433;" horiz-adv-x="480" 
d="M455 540v-113h-265v-427h-120v540h385z" />
    <glyph glyph-name="uni0434" unicode="&#x434;" horiz-adv-x="623" 
d="M539 540v-445h54v-183h-113v88h-336v-88h-114v183q61 24 89 159q20 100 27 286h393zM419 95v351h-168q-8 -139 -24 -211q-20 -101 -55 -140h247z" />
    <glyph glyph-name="uni0435" unicode="&#x435;" horiz-adv-x="602" 
d="M170 236q7 -65 42.5 -101.5t96.5 -36.5q90 0 126 77l119 -36q-29 -71 -95 -112.5t-144 -41.5q-124 0 -199.5 78t-75.5 201q0 131 73.5 211t195.5 80q129 0 195 -88t56 -231h-390zM309 450q-114 0 -136 -119h265q-8 60 -38 89.5t-91 29.5z" />
    <glyph glyph-name="uni0436" unicode="&#x436;" horiz-adv-x="787" 
d="M10 0l174 267l-62 118q-16 28 -41 39q-22 8 -50 3v113q48 24 111 -4q41 -20 75 -88l68 -131h55v223h107v-223h56l69 131q32 63 73 84q52 27 114 8v-113q-27 6 -51 -2q-24 -6 -43 -40l-62 -118l174 -267h-135l-137 222h-58v-222h-107v222h-58l-137 -222h-135z" />
    <glyph glyph-name="uni0437" unicode="&#x437;" horiz-adv-x="520" 
d="M47 469q43 36 93 59q57 27 117 27q86 0 141 -36q65 -44 65 -123q0 -65 -43 -112q28 -19 44 -52.5t16 -67.5q0 -94 -79 -143q-52 -36 -144 -36q-81 0 -143 36q-27 15 -53 40t-39 46l95 63q26 -30 51 -47q42 -25 98 -25q33 0 57 14q34 21 34 60q0 21 -14 36.5t-39 19.5
q-17 3 -73 3h-38v95h38q42 0 62 6q47 8 47 50q0 34 -28 50q-20 11 -51 11q-44 0 -92 -22q-27 -13 -54 -35z" />
    <glyph glyph-name="uni0438" unicode="&#x438;" horiz-adv-x="609" 
d="M539 540v-540h-115v353l-257 -353h-97v540h115v-343l258 343h96z" />
    <glyph glyph-name="uni0439" unicode="&#x439;" horiz-adv-x="609" 
d="M377 752h94q0 -63 -44.5 -107.5t-106.5 -44.5q-63 0 -107.5 44.5t-44.5 107.5h94q0 -24 17 -41t41 -17t40.5 17t16.5 41zM539 540v-540h-115v353l-257 -353h-97v540h115v-343l258 343h96z" />
    <glyph glyph-name="uni043A" unicode="&#x43a;" horiz-adv-x="539" 
d="M70 0l1 540h122v-260l197 260h151l-210 -270l228 -270h-160l-206 260v-260h-123z" />
    <glyph glyph-name="uni043B" unicode="&#x43b;" horiz-adv-x="605" 
d="M137 540h398v-540h-120v427h-171q-19 -219 -33 -294q-16 -91 -60 -122t-131 -11v101q42 -8 58 9.5t25 68.5q21 112 34 361z" />
    <glyph glyph-name="uni043C" unicode="&#x43c;" horiz-adv-x="725" 
d="M556 540h99v-540h-115v298l-154 -298h-47l-154 298v-298h-115v540h99l194 -373z" />
    <glyph glyph-name="uni043D" unicode="&#x43d;" horiz-adv-x="623" 
d="M433 540h120v-540h-120v214h-243v-214h-120v540h120v-213h243v213z" />
    <glyph glyph-name="uni043E" unicode="&#x43e;" horiz-adv-x="618" 
d="M309 -15q-121 0 -195 79.5t-74 205.5q0 127 74.5 206t194.5 79q121 0 195 -79.5t74 -205.5t-74.5 -205.5t-194.5 -79.5zM451 270q0 80 -36.5 126t-105.5 46q-70 0 -105.5 -46t-35.5 -126t36 -126t105 -46t105.5 47t36.5 125z" />
    <glyph glyph-name="uni043F" unicode="&#x43f;" horiz-adv-x="609" 
d="M539 540v-540h-120v427h-229v-427h-120v540h469z" />
    <glyph glyph-name="uni0440" unicode="&#x440;" horiz-adv-x="617" 
d="M326 555q113 0 182 -80t69 -205q0 -123 -68 -204t-179 -81q-82 0 -139 43v-268h-121v780h107v-38q59 53 149 53zM312 93q67 0 102 49t35 128q0 78 -36 127.5t-105 49.5q-66 0 -98.5 -47.5t-32.5 -129.5q0 -177 135 -177z" />
    <glyph glyph-name="uni0441" unicode="&#x441;" horiz-adv-x="576" 
d="M545 383l-120 -33q-13 43 -45.5 67.5t-74.5 24.5q-68 0 -102.5 -47t-34.5 -125q0 -79 35 -125.5t102 -46.5q88 0 117 85l123 -27q-25 -82 -87.5 -126.5t-152.5 -44.5q-122 0 -193 79.5t-72 205.5q1 126 73 205.5t193 79.5q92 0 155.5 -46t83.5 -126z" />
    <glyph glyph-name="uni0442" unicode="&#x442;" horiz-adv-x="532" 
d="M507 540v-107h-181v-433h-120v433h-181v107h482z" />
    <glyph glyph-name="uni0443" unicode="&#x443;" horiz-adv-x="559" 
d="M434 540h121l-301 -780l-113 1l88 239l1 4l-218 536h125l151 -385z" />
    <glyph glyph-name="uni0444" unicode="&#x444;" horiz-adv-x="756" 
d="M432 550q123 16 203.5 -59.5t80.5 -220.5t-80.5 -220.5t-203.5 -59.5v-215h-107v215q-124 -16 -204.5 59.5t-80.5 220.5t80.5 220.5t204.5 59.5v162h107v-162zM163 270q0 -88 41 -135.5t121 -37.5v344q-83 11 -122.5 -35.5t-39.5 -135.5zM432 97q80 -10 121 36.5
t41 136.5q0 91 -39.5 136.5t-122.5 34.5v-344z" />
    <glyph glyph-name="uni0445" unicode="&#x445;" horiz-adv-x="554" 
d="M539 540l-193 -267l198 -273h-142l-124 179l-126 -179h-142l198 273l-194 267h142l122 -173l119 173h142z" />
    <glyph glyph-name="uni0446" unicode="&#x446;" horiz-adv-x="653" 
d="M539 107h104v-195h-120v88h-453v540h120v-427h229v427h120v-433z" />
    <glyph glyph-name="uni0447" unicode="&#x447;" horiz-adv-x="596" 
d="M404 540h122v-540h-122v213q-68 -70 -171 -70q-71 0 -121 42t-64 113q-8 41 -8 111v131h122v-131q0 -51 7 -79q19 -83 98 -83q42 0 80 18.5t57 46.5v228z" />
    <glyph glyph-name="uni0448" unicode="&#x448;" horiz-adv-x="791" 
d="M70 0v540h115v-433h153v433h115v-433h153v433h115v-540h-651z" />
    <glyph glyph-name="uni0449" unicode="&#x449;" horiz-adv-x="771" 
d="M721 107h40v-195h-120v88h-571v540h115v-433h153v433h115v-433h153v433h115v-433z" />
    <glyph glyph-name="uni044A" unicode="&#x44a;" horiz-adv-x="598" 
d="M414 354q144 -30 144 -175q0 -139 -140 -172q-31 -7 -101 -7h-218l-1 446h-78v94h199v-180h97q67 0 98 -6zM378 100q24 6 40.5 28t16.5 51q0 32 -17 53.5t-43 28.5q-20 5 -47 5h-109v-171h109q33 0 50 5z" />
    <glyph glyph-name="uni044B" unicode="&#x44b;" horiz-adv-x="740" 
d="M70 540h121v-180h60q67 0 98 -6q144 -30 144 -175q0 -139 -140 -172q-31 -7 -101 -7h-182v540zM550 540v-540h120v540h-120zM191 266v-171h72q33 0 50 5q24 6 40.5 28t16.5 51q0 32 -17 53.5t-43 28.5q-20 5 -47 5h-72z" />
    <glyph glyph-name="uni044C" unicode="&#x44c;" horiz-adv-x="570" 
d="M70 540h121v-180h96q68 0 99 -6q144 -30 144 -175q0 -139 -141 -172q-30 -7 -100 -7h-219v540zM191 266v-171h109q33 0 50 5q24 6 40.5 28t16.5 51q0 32 -17 53.5t-43 28.5q-20 5 -47 5h-109z" />
    <glyph glyph-name="uni044D" unicode="&#x44d;" horiz-adv-x="577" 
d="M270 555q122 0 194 -79t73 -206q-1 -126 -72 -205.5t-193 -79.5q-90 0 -152.5 44.5t-87.5 126.5l122 27q29 -85 118 -85q56 0 90 33.5t43 91.5h-180v95h180q-9 58 -42.5 91t-90.5 33q-42 0 -74.5 -24.5t-45.5 -67.5l-120 33q19 80 83 126t155 46z" />
    <glyph glyph-name="uni044E" unicode="&#x44e;" horiz-adv-x="852" 
d="M746 466q66 -78 66 -196q0 -113 -66 -195q-75 -90 -204 -90q-97 0 -164.5 60t-83.5 165h-104v-210h-120v540h120v-210h104q16 106 84 165.5t164 59.5q130 0 204 -89zM651 148q33 44 33 122q0 79 -33 123q-36 49 -109 49q-70 0 -105.5 -46t-35.5 -126t36 -126t105 -46
q73 0 109 50z" />
    <glyph glyph-name="uni044F" unicode="&#x44f;" horiz-adv-x="584" 
d="M295 540h219v-540h-121v180h-97h-18l-111 -180h-127l122 196q-108 42 -108 165q0 139 141 172q29 7 100 7zM393 274v172h-109q-30 0 -50 -6q-23 -7 -40 -28.5t-17 -50.5q0 -31 17 -52.5t43 -28.5q19 -6 47 -6h109z" />
    <glyph glyph-name="uni0450" unicode="&#x450;" horiz-adv-x="602" 
d="M490 693l-31 -88l-268 96l31 88zM170 236q7 -65 42.5 -101.5t96.5 -36.5q90 0 126 77l119 -36q-29 -71 -95 -112.5t-144 -41.5q-124 0 -199.5 78t-75.5 201q0 131 73.5 211t195.5 80q129 0 195 -88t56 -231h-390zM309 450q-114 0 -136 -119h265q-8 60 -38 89.5t-91 29.5z
" />
    <glyph glyph-name="uni0451" unicode="&#x451;" horiz-adv-x="602" 
d="M260 733v-110h-110v110h110zM467 733v-110h-110v110h110zM170 236q7 -65 42.5 -101.5t96.5 -36.5q90 0 126 77l119 -36q-29 -71 -95 -112.5t-144 -41.5q-124 0 -199.5 78t-75.5 201q0 131 73.5 211t195.5 80q129 0 195 -88t56 -231h-390zM309 450q-114 0 -136 -119h265
q-8 60 -38 89.5t-91 29.5z" />
    <glyph glyph-name="uni0452" unicode="&#x452;" horiz-adv-x="626" 
d="M500 500q22 -20 36.5 -47.5t20.5 -62.5t7.5 -61.5t1.5 -67.5v-350q0 -56 -25.5 -91.5t-71.5 -44.5q-51 -10 -115 5v86q20 0 40 -1t35 16.5t15 54.5v320q0 115 -43 155q-34 32 -90 31q-43 -2 -71 -25q-32 -25 -43 -75q-6 -31 -6 -107v-235h-121v583h-55v94h55v43h107v-43
h105v-94h-105v-103q6 8 11 13q50 57 138 61q110 7 174 -54z" />
    <glyph glyph-name="uni0453" unicode="&#x453;" horiz-adv-x="480" 
d="M130 605l267 96l-30 88l-269 -96zM455 540v-113h-265v-427h-120v540h385z" />
    <glyph glyph-name="uni0454" unicode="&#x454;" horiz-adv-x="577" 
d="M305 98q89 0 118 85l122 -27q-25 -82 -87 -126.5t-153 -44.5q-122 0 -193 80t-71 205q0 126 72.5 205.5t193.5 79.5q91 0 155 -46t83 -126l-120 -33q-13 43 -45.5 67.5t-74.5 24.5q-57 0 -90.5 -33t-42.5 -91h180v-95h-180q9 -58 43.5 -91.5t89.5 -33.5z" />
    <glyph glyph-name="uni0455" unicode="&#x455;" horiz-adv-x="542" 
d="M497 396l-123 -22q-4 34 -32 54.5t-70 22.5q-40 2 -67 -13t-27 -39q0 -21 14.5 -33.5t45.5 -22.5q9 -3 96 -26q86 -22 126.5 -58t40.5 -101q0 -81 -60.5 -127t-155.5 -46q-102 0 -166 42.5t-79 129.5l123 19q9 -42 43 -64t82 -22q39 0 64.5 16t25.5 46q0 25 -18 38.5
t-54 23.5q-109 30 -128 36q-56 16 -88 52t-32 91q0 77 61.5 119.5t149.5 42.5q92 0 155 -41.5t73 -117.5z" />
    <glyph glyph-name="uni0456" unicode="&#x456;" 
d="M80 734h120v-110h-120v110zM80 540v-540h120v540h-120z" />
    <glyph glyph-name="uni0457" unicode="&#x457;" 
d="M-18 733h110v-110h-110v110zM189 733h110v-110h-110v110zM80 540v-540h120v540h-120z" />
    <glyph glyph-name="uni0458" unicode="&#x458;" horiz-adv-x="288" 
d="M96 718h121v-110h-121v110zM16 -127h-26v-113h66q86 0 125 40q17 18 25.5 41.5t9.5 40t1 53.5v605h-121v-575q0 -53 -19 -72q-20 -20 -61 -20z" />
    <glyph glyph-name="uni0459" unicode="&#x459;" horiz-adv-x="856" 
d="M672 354q144 -32 144 -175q0 -139 -140 -172q-32 -7 -101 -7h-182v427h-149q-19 -219 -33 -294q-16 -91 -60 -122t-131 -11v101q42 -8 58 9.5t25 68.5q21 112 34 361h377v-180h60q72 0 98 -6zM636 100q24 6 40.5 28t16.5 51q0 32 -17 53.5t-43 28.5q-20 5 -47 5h-72v-171
h72q33 0 50 5z" />
    <glyph glyph-name="uni045A" unicode="&#x45a;" horiz-adv-x="836" 
d="M652 354q144 -32 144 -175q0 -139 -141 -172q-30 -7 -100 -7h-182v266h-183v-266h-120v540h120v-180h183v180h120v-180h61q72 0 98 -6zM616 100q24 6 40.5 28t16.5 51q0 32 -17 53.5t-43 28.5q-20 5 -47 5h-73v-171h73q33 0 50 5z" />
    <glyph glyph-name="uni045B" unicode="&#x45b;" horiz-adv-x="626" 
d="M500 500q22 -20 36.5 -47.5t20.5 -62.5t7.5 -61.5t1.5 -67.5v-261h-122v256q0 115 -43 155q-34 32 -90 31q-43 -2 -71 -25q-32 -25 -43 -75q-6 -31 -6 -107v-235h-121v583h-55v94h55v43h107v-43h105v-94h-105v-103q6 8 11 13q50 57 138 61q110 7 174 -54z" />
    <glyph glyph-name="uni045C" unicode="&#x45c;" horiz-adv-x="539" 
d="M150 605l268 96l-31 88l-268 -96zM70 0l1 540h122v-260l197 260h151l-210 -270l228 -270h-160l-206 260v-260h-123z" />
    <glyph glyph-name="uni045D" unicode="&#x45d;" horiz-adv-x="609" 
d="M449 605l31 88l-268 96l-31 -88zM539 540v-540h-115v353l-257 -353h-97v540h115v-343l258 343h96z" />
    <glyph glyph-name="uni045E" unicode="&#x45e;" horiz-adv-x="559" 
d="M291 600q-63 0 -107.5 44.5t-44.5 107.5h94q0 -24 17 -41t41 -17t40.5 17t16.5 41h94q0 -63 -44 -107.5t-107 -44.5zM434 540h121l-301 -780l-113 1l88 239l1 4l-218 536h125l151 -385z" />
    <glyph glyph-name="uni045F" unicode="&#x45f;" horiz-adv-x="609" 
d="M419 540h120v-540h-167v-120h-120v120h-182v540h120v-427h229v427z" />
    <glyph glyph-name="uni0490" unicode="&#x490;" horiz-adv-x="555" 
d="M545 808v-195h-10v-6h-345v-607h-120v720h355v88h120z" />
    <glyph glyph-name="uni0491" unicode="&#x491;" horiz-adv-x="480" 
d="M335 628h120v-201h-265v-427h-120v540h265v88z" />
    <glyph glyph-name="uni04AE" unicode="&#x4ae;" horiz-adv-x="612" 
d="M471 720h141l-245 -425v-295h-122v295l-245 425h141l165 -287z" />
    <glyph glyph-name="uni04AF" unicode="&#x4af;" horiz-adv-x="553" 
d="M412 540h121l-196 -540v-180h-121v180l-196 540h121l136 -391z" />
    <glyph glyph-name="uni04BA" unicode="&#x4ba;" horiz-adv-x="676" 
d="M191 0h-121v720h121v-285q62 47 155 47q137 0 208 -89q33 -42 42.5 -88.5t9.5 -117.5v-187h-122v161q0 107 -35 153q-39 51 -121 51q-90 0 -137 -42v-323z" />
    <glyph glyph-name="uni04BB" unicode="&#x4bb;" horiz-adv-x="596" 
d="M548 242q8 -41 8 -111v-131h-122v131q0 50 -6 79q-18 83 -98 83q-42 0 -80 -19t-58 -46v-228h-121v540h121v-213q68 70 171 70q71 0 121 -42t64 -113z" />
    <glyph glyph-name="uni04E8" unicode="&#x4e8;" horiz-adv-x="769" 
d="M385 735q159 -1 250 -102.5t94 -272.5q-2 -170 -94.5 -272.5t-249.5 -102.5q-158 0 -251.5 104.5t-93.5 270.5t93.5 271t251.5 104zM385 621q-91 1 -146.5 -53.5t-67.5 -147.5h427q-13 94 -67 147t-146 54zM385 99q91 -1 145.5 52.5t67.5 148.5h-427q13 -95 67 -147.5
t147 -53.5z" />
    <glyph glyph-name="uni04E9" unicode="&#x4e9;" horiz-adv-x="618" 
d="M309 555q121 0 195 -79.5t74 -205.5t-74.5 -205.5t-194.5 -79.5q-121 0 -195 79.5t-74 205.5q0 127 74.5 206t194.5 79zM309 442q-117 0 -137 -124h275q-10 59 -45 91.5t-93 32.5zM309 98q58 0 93 33.5t45 91.5h-275q9 -59 44 -92t93 -33z" />
    <glyph glyph-name="Wgrave" unicode="&#x1e80;" horiz-adv-x="976" 
d="M621 785l31 88l-268 96l-31 -88zM838 720h126l-210 -720h-119l-148 512l-146 -512h-119l-210 720h126l143 -520l143 519l126 1l144 -520z" />
    <glyph glyph-name="wgrave" unicode="&#x1e81;" horiz-adv-x="802" 
d="M516 605l31 88l-268 96l-31 -88zM664 540h118l-165 -540h-101l-115 372l-122 -372h-94l-165 541l119 -1l106 -346l106 346h101l107 -346z" />
    <glyph glyph-name="Wacute" unicode="&#x1e82;" horiz-adv-x="976" 
d="M351 785l267 96l-30 88l-269 -96zM838 720h126l-210 -720h-119l-148 512l-146 -512h-119l-210 720h126l143 -520l143 519l126 1l144 -520z" />
    <glyph glyph-name="wacute" unicode="&#x1e83;" horiz-adv-x="802" 
d="M264 605l268 96l-31 88l-268 -96zM664 540h118l-165 -540h-101l-115 372l-122 -372h-94l-165 541l119 -1l106 -346l106 346h101l107 -346z" />
    <glyph glyph-name="Wdieresis" unicode="&#x1e84;" horiz-adv-x="976" 
d="M330 950h110v-110h-110v110zM537 950h110v-110h-110v110zM838 720h126l-210 -720h-119l-148 512l-146 -512h-119l-210 720h126l143 -520l143 519l126 1l144 -520z" />
    <glyph glyph-name="wdieresis" unicode="&#x1e85;" horiz-adv-x="802" 
d="M243 733h110v-110h-110v110zM450 733h110v-110h-110v110zM664 540h118l-165 -540h-101l-115 372l-122 -372h-94l-165 541l119 -1l106 -346l106 346h101l107 -346z" />
    <glyph glyph-name="uni1E9E" unicode="&#x1e9e;" horiz-adv-x="635" 
d="M70 0v469q0 79 16 125q48 141 214 141q91 0 151 -51t75 -134l-116 -126q76 -14 120.5 -67t44.5 -144q0 -105 -60 -166.5t-169 -61.5q-57 0 -93 15v118q43 -15 77 -15q56 0 89 29.5t33 84.5q0 51 -40.5 82t-103.5 18l-37 94l129 142q-19 69 -100 69q-62 0 -91 -56
q-17 -31 -17 -98v-468h-122z" />
    <glyph glyph-name="Ygrave" unicode="&#x1ef2;" horiz-adv-x="612" 
d="M443 785l31 88l-268 96l-31 -88zM471 720h141l-245 -425v-295h-122v295l-245 425h141l165 -287z" />
    <glyph glyph-name="ygrave" unicode="&#x1ef3;" horiz-adv-x="559" 
d="M446 693l-31 -88l-268 96l31 88zM434 540h121l-301 -780l-113 1l88 239l1 4l-218 536h125l151 -385z" />
    <glyph glyph-name="uni2011" unicode="&#x2011;" horiz-adv-x="420" 
d="M60 363h300v-95h-300v95z" />
    <glyph glyph-name="endash" unicode="&#x2013;" horiz-adv-x="540" 
d="M60 363h420v-95h-420v95z" />
    <glyph glyph-name="emdash" unicode="&#x2014;" horiz-adv-x="780" 
d="M60 363h660v-95h-660v95z" />
    <glyph glyph-name="quoteleft" unicode="&#x2018;" horiz-adv-x="284" 
d="M76 587v133h123v-128h-64q-4 -36 10 -57t47 -19l7 -52q-61 -10 -92 23t-31 100z" />
    <glyph glyph-name="quoteright" unicode="&#x2019;" horiz-adv-x="284" 
d="M208 587q0 -67 -31 -100t-92 -23l7 52q33 -2 47.5 19t9.5 57h-64v128h123v-133z" />
    <glyph glyph-name="quotesinglbase" unicode="&#x201a;" horiz-adv-x="303" 
d="M183 -5q0 -67 -31 -99.5t-92 -22.5l7 51q33 -2 47.5 19t9.5 57h-64v128h123v-133z" />
    <glyph glyph-name="quotedblleft" unicode="&#x201c;" horiz-adv-x="510" 
d="M139 588v134h124v-129h-64q-5 -36 9.5 -57t46.5 -18l8 -52q-61 -10 -92.5 23t-31.5 99zM307 588v134h123v-129h-64q-5 -36 9.5 -57t47.5 -18l7 -52q-61 -10 -92 23t-31 99z" />
    <glyph glyph-name="quotedblright" unicode="&#x201d;" horiz-adv-x="510" 
d="M203 588q0 -66 -31 -99t-92 -23l7 52q33 -3 47.5 18t9.5 57h-64v129h123v-134zM371 588q0 -66 -31 -99t-92 -23l7 52q33 -3 47 18t9 57h-63v129h123v-134z" />
    <glyph glyph-name="quotedblbase" unicode="&#x201e;" horiz-adv-x="560" 
d="M203 121q0 -67 -31 -99.5t-92 -22.5l7 51q33 -2 47.5 19t9.5 57h-64v128h123v-133zM371 121q0 -67 -31 -99.5t-92 -22.5l7 51q33 -2 47 19t9 57h-63v128h123v-133z" />
    <glyph glyph-name="bullet" unicode="&#x2022;" horiz-adv-x="703" 
d="M355 173q-61 0 -103 41t-42 101t42 101t103 41q57 0 97.5 -41t40.5 -101t-40.5 -101t-97.5 -41z" />
    <glyph glyph-name="ellipsis" unicode="&#x2026;" horiz-adv-x="710" 
d="M80 123h123v-123h-123v123zM293 123h124v-123h-124v123zM507 123h123v-123h-123v123z" />
    <glyph glyph-name="guilsinglleft" unicode="&#x2039;" horiz-adv-x="637" 
d="M380 75l-240 240l240 240l57 -58l-182 -182l182 -182z" />
    <glyph glyph-name="guilsinglright" unicode="&#x203a;" horiz-adv-x="638" 
d="M257 75l-57 58l182 182l-182 182l57 58l240 -240z" />
    <glyph glyph-name="fraction" unicode="&#x2044;" horiz-adv-x="720" 
d="M80 0l-80 80l640 640l80 -81z" />
    <glyph glyph-name="uni2060" unicode="&#x2060;" horiz-adv-x="0" 
 />
    <glyph glyph-name="Euro" unicode="&#x20ac;" horiz-adv-x="684" 
d="M465 99q72 -2 125 37l63 -99q-82 -52 -188 -52q-79 0 -148 30.5t-114 86.5q-45 57 -65 127h-98v95h81q-2 24 -2 36q0 11 2 35h-81v95h97q20 73 66 129q45 57 114 86.5t148 29.5q105 0 188 -51l-64 -100q-53 38 -124 38q-110 0 -166 -77q-19 -25 -31 -55h245v-95h-264
q-2 -24 -2 -35q0 -12 2 -36h264v-95h-244q12 -31 30 -54q27 -37 71 -57t95 -19z" />
    <glyph glyph-name="uni20B4" unicode="&#x20b4;" horiz-adv-x="670" 
d="M559 480h51v-95h-549l-1 95h363l2 3q13 19 13 46q0 37 -24 60q-29 32 -76 32q-48 0 -82 -45q-14 -19 -19 -47h-127q6 65 46 117q66 89 183 89q97 0 161 -58q29 -27 47 -67.5t18 -81.5q0 -24 -6 -48zM610 335v-94h-367q-20 -20 -20 -50q0 -44 33 -67q29 -24 82 -24
q57 0 95 54q10 13 17 37h124q-6 -55 -38 -102q-31 -50 -85 -77t-119 -27q-80 0 -137 34q-46 26 -72.5 72.5t-26.5 95.5q0 30 7 54h-43v94h550z" />
    <glyph glyph-name="uni20BD" unicode="&#x20bd;" horiz-adv-x="685" 
d="M414 262h-152v-69h235v-95h-235v-98h-120v98h-72v95h72v69h-72v103h72v355h272q33 0 58 -4q91 -14 137 -75.5t46 -154.5q0 -91 -46 -148t-137 -72q-25 -4 -58 -4zM262 607v-242h147q28 0 46 6q79 24 79 115q0 40 -19 72.5t-60 43.5q-18 5 -46 5h-147z" />
    <glyph glyph-name="uni2116" unicode="&#x2116;" horiz-adv-x="1132" 
d="M902 375q-74 0 -127 52.5t-53 127.5q0 73 54 126.5t126 53.5q74 0 127 -52.5t53 -127.5t-53 -127.5t-127 -52.5zM192 720l334 -507v507h122v-720h-122l-334 508v-508h-122v720h122zM902 478q31 0 54 23t23 54t-23 54t-54 23q-32 0 -54.5 -23t-22.5 -54t22.5 -54t54.5 -23
zM752 331h300v-94h-300v94z" />
    <glyph glyph-name="trademark" unicode="&#x2122;" horiz-adv-x="920" 
d="M60 643v77h335v-77h-125v-298h-85v298h-125zM792 720h68v-375h-81v216l-93 -149h-47l-92 149v-216h-82v375h69l129 -202z" />
    <glyph glyph-name="arrowup" unicode="&#x2191;" horiz-adv-x="720" 
d="M600 491l-57 -57l-136 136l1 -570h-95v570l-135 -136l-58 57l240 241z" />
    <glyph glyph-name="arrowdown" unicode="&#x2193;" horiz-adv-x="720" 
d="M543 216l57 -57l-240 -241l-240 241l58 57l135 -136v570h95l-1 -570z" />
    <glyph glyph-name="carriagereturn" unicode="&#x21b5;" horiz-adv-x="819" 
d="M665 720h94v-453h-456l134 -134l-57 -58l-240 240l240 240l57 -58l-134 -134h362v357z" />
    <glyph glyph-name="minus" unicode="&#x2212;" horiz-adv-x="540" 
d="M60 408h420v-95h-420v95z" />
    <glyph glyph-name="notequal" unicode="&#x2260;" horiz-adv-x="750" 
d="M630 407h-161l-69 -94h230v-95h-300l-83 -113l-77 55l43 58h-93v95h163l69 94h-232v95h302l83 113l76 -55l-43 -58h92v-95z" />
    <glyph glyph-name="lessequal" unicode="&#x2264;" horiz-adv-x="750" 
d="M630 167l-510 157v74l510 157v-95l-342 -99l342 -99v-95zM120 95v-95h510v95h-510z" />
    <glyph glyph-name="greaterequal" unicode="&#x2265;" horiz-adv-x="750" 
d="M120 167v95l342 99l-342 99v95l510 -157v-74zM630 95h-510v-95h510v95z" />
    <glyph glyph-name="i.loclTRK" 
d="M80 734h120v-110h-120v110zM80 540v-540h120v540h-120z" />
    <glyph glyph-name="f_i" horiz-adv-x="697" 
d="M153 688q19 22 47.5 33t46 12.5t46.5 1.5h8h67v-98h-62q-68 0 -68 -62v-35h130v-94h-130v-446h-121v446h-87v94h87v9q0 31 1 47.5t9.5 44.5t25.5 47zM497 734h120v-110h-120v110zM497 0v540h120v-540h-120z" />
    <glyph glyph-name="uni0414.loclBGR" horiz-adv-x="765" 
d="M658 113h61v-201h-114v88h-454v-88h-113v201h61l191 607h177zM223 113h311l-157 490z" />
    <glyph glyph-name="uni0416.loclBGR" horiz-adv-x="1021" 
d="M10 0l244 375l-95 180q-18 34 -50 46q-25 10 -64 7l-10 112q62 24 129 -6q54 -24 93 -101l100 -191h92v298h123v-298h93l99 191q39 77 93 101q68 31 129 6l-9 -112q-40 3 -65 -7q-30 -11 -50 -46l-95 -180l244 -375h-146l-205 327h-88v-327h-123v327h-88l-205 -327h-146z
" />
    <glyph glyph-name="uni041A.loclBGR" horiz-adv-x="649" 
d="M70 0v720h122v-334l288 334h148l-310 -353l331 -367h-153l-304 336v-336h-122z" />
    <glyph glyph-name="uni041B.loclBGR" horiz-adv-x="641" 
d="M232 720h177l227 -720h-124l-193 603l-190 -603h-124z" />
    <glyph glyph-name="uni0432.loclBGR" horiz-adv-x="613" 
d="M293 735q95 0 159.5 -57.5t64.5 -145.5t-61 -134q52 -19 85.5 -69t33.5 -117q0 -107 -69.5 -167t-187.5 -60q-195 0 -238 150q-10 33 -10 95v300q0 38 9 70q22 68 79.5 101.5t134.5 33.5zM293 622q-65 0 -89 -49q-12 -27 -12 -75v-276q0 -41 7 -61q28 -64 121 -64
q60 0 97 32t37 85q0 57 -43 86t-118 29v105q48 4 75 28.5t27 67.5q0 42 -29.5 67t-72.5 25z" />
    <glyph glyph-name="uni0433.loclBGR" horiz-adv-x="542" 
d="M45 396q10 76 73 117.5t155 41.5q88 0 149.5 -42.5t61.5 -119.5q0 -55 -32 -91t-88 -52q-15 -5 -128 -36q-36 -10 -54 -23.5t-18 -38.5q0 -30 25.5 -46t64.5 -16q48 0 82 22t43 64l123 -19q-30 -172 -245 -172q-95 0 -155.5 46t-60.5 127q0 65 40.5 101t126.5 58l96 26
q31 10 46 22.5t15 33.5q0 24 -27.5 39t-67.5 13q-42 -2 -69.5 -22.5t-32.5 -54.5z" />
    <glyph glyph-name="uni0434.loclBGR" horiz-adv-x="616" 
d="M440 540h106v-566q0 -42 -7 -76q-18 -76 -82.5 -114t-159.5 -38q-68 0 -125.5 31t-89.5 85l112 55q29 -57 104 -57q58 0 93.5 30t34.5 86v52q-57 -43 -139 -43q-111 0 -179 81t-68 204q0 125 69 205t182 80q90 0 149 -53v38zM305 93q135 0 135 177q0 82 -32.5 129.5
t-98.5 47.5q-69 0 -105 -49.5t-36 -127.5q0 -79 35 -128t102 -49z" />
    <glyph glyph-name="uni0436.loclBGR" horiz-adv-x="787" 
d="M603 267l174 -267h-135l-137 222h-58v-222h-107v222h-58l-137 -222h-135l174 267l-62 118q-16 28 -41 39q-22 8 -50 3v113q48 24 111 -4q41 -20 75 -88l68 -131h55v403h107v-403h56l69 131q32 63 73 84q52 27 114 8v-113q-27 6 -51 -2q-24 -6 -43 -40z" />
    <glyph glyph-name="uni0437.loclBGR" horiz-adv-x="660" 
d="M67 446q41 41 103 73q75 36 162 36q117 0 188 -53q81 -58 81 -159q0 -50 -25 -88q-13 -30 -43 -60q35 -22 55 -53q32 -42 32 -114q0 -49 -26 -96t-68 -77q-71 -50 -191 -50q-108 0 -177 38q-76 43 -118 116l90 69q29 -48 81 -80q53 -30 123 -30q67 0 106 24q53 33 52 87
q0 47 -33 73q-31 26 -106 31q-36 2 -109 2v114q73 0 109 2q63 3 89 24q32 25 30 67q0 42 -34 70q-38 30 -108 30q-54 0 -112 -28q-43 -22 -76 -55z" />
    <glyph glyph-name="uni0438.loclBGR" horiz-adv-x="626" 
d="M434 540h122v-540h-107v61q-4 -4 -12 -14q-49 -57 -138 -61q-109 -7 -174 54q-29 27 -44.5 70.5t-18 78t-2.5 90.5v261h122v-256q0 -116 43 -155q33 -33 90 -31q40 1 71 25q33 27 42 75q6 26 6 106v1v235z" />
    <glyph glyph-name="uni0439.loclBGR" horiz-adv-x="626" 
d="M308 600q-63 0 -107.5 44.5t-44.5 107.5h94q0 -24 17 -41t41 -17t40.5 17t16.5 41h94q0 -63 -44 -107.5t-107 -44.5zM434 540h122v-540h-107v61q-4 -4 -12 -14q-49 -57 -138 -61q-109 -7 -174 54q-29 27 -44.5 70.5t-18 78t-2.5 90.5v261h122v-256q0 -116 43 -155
q33 -33 90 -31q40 1 71 25q33 27 42 75q6 26 6 106v1v235z" />
    <glyph glyph-name="uni045D.loclBGR" horiz-adv-x="622" 
d="M474 693l-32 -88l-267 96l30 88zM434 540h122v-540h-107v61q-4 -4 -12 -14q-49 -57 -138 -61q-109 -7 -174 54q-29 27 -44.5 70.5t-18 78t-2.5 90.5v261h122v-256q0 -116 43 -155q33 -33 90 -31q40 1 71 25q33 27 42 75q6 26 6 106v1v235z" />
    <glyph glyph-name="uni043A.loclBGR" horiz-adv-x="539" 
d="M70 0l1 720h122v-440l197 260h151l-210 -270l228 -270h-160l-206 260v-260h-123z" />
    <glyph glyph-name="uni043B.loclBGR" horiz-adv-x="553" 
d="M412 0l-135 392l-136 -392h-121l196 540h121l196 -540h-121z" />
    <glyph glyph-name="uni043D.loclBGR" horiz-adv-x="623" 
d="M433 540h120v-540h-120v214h-243v-214h-120v540h120v-213h243v213z" />
    <glyph glyph-name="uni043F.loclBGR" horiz-adv-x="626" 
d="M501 500q29 -27 44.5 -70.5t18 -78t2.5 -90.5v-261h-122v256q0 116 -43 155q-33 33 -90 31q-42 -2 -71 -25q-33 -27 -42 -75q-6 -26 -6 -106v-1v-235h-121v540h106v-61q4 4 12 14q49 57 138 61q110 7 174 -54z" />
    <glyph glyph-name="uni0442.loclBGR" horiz-adv-x="903" 
d="M788 506q34 -34 44.5 -74t10.5 -102l-1 -330h-121v322q0 65 -31 95q-27 29 -71 29q-48 0 -76 -34q-26 -30 -26 -80v-2v-330h-122v322q0 65 -30 95q-27 29 -72 29q-47 0 -76 -34q-26 -30 -26 -80v-332h-121v540h107v-57q59 70 154 70q85 0 132 -47q18 -18 29 -38
q28 40 71.5 62.5t93.5 22.5q85 0 131 -47z" />
    <glyph glyph-name="uni0447.loclBGR" horiz-adv-x="596" 
d="M404 540h122v-540h-122v213q-68 -70 -171 -70q-71 0 -121 42t-64 113q-8 41 -8 111v131h122v-131q0 -51 7 -79q19 -83 98 -83q42 0 80 18.5t57 46.5v228z" />
    <glyph glyph-name="uni0446.loclBGR" horiz-adv-x="649" 
d="M556 107h83v-195h-78v88h-112v61q-4 -4 -12 -14q-49 -57 -138 -61q-109 -7 -174 54q-29 27 -44.5 70.5t-18 78t-2.5 90.5v261h122v-256q0 -116 43 -155q33 -33 90 -31q40 1 71 25q33 27 42 75q6 26 6 106v1v235h122v-433z" />
    <glyph glyph-name="uni0448.loclBGR" horiz-adv-x="903" 
d="M712 540h121v-540h-106v59q-58 -72 -155 -72q-85 0 -131 47q-15 14 -30 38q-26 -40 -70.5 -62.5t-94.5 -22.5q-84 0 -131 47q-34 34 -44 73.5t-10 102.5v330h121v-322q0 -65 31 -95q27 -29 71 -29q48 0 76 34q26 30 26 80v2v330h122v-322q0 -65 30 -95q27 -29 72 -29
q47 0 76 34q26 30 26 80v332z" />
    <glyph glyph-name="uni0449.loclBGR" horiz-adv-x="926" 
d="M833 107h83v-195h-78v88h-112v58q-58 -71 -154 -71q-85 0 -132 47q-18 18 -29 38q-27 -40 -71.5 -62.5t-93.5 -22.5q-85 0 -132 47q-34 34 -44 73.5t-10 102.5v330h122v-322q0 -65 30 -95q27 -29 72 -29q47 0 76 34q26 30 26 80v2v330h122l-1 -322q0 -65 31 -95
q27 -29 71 -29q48 0 77 34q25 30 25 80v332h122v-433z" />
    <glyph glyph-name="uni044C.loclBGR" horiz-adv-x="570" 
d="M70 540h121v-180h96q68 0 99 -6q144 -30 144 -175q0 -139 -141 -172q-30 -7 -100 -7h-219v540zM191 266v-171h109q33 0 50 5q24 6 40.5 28t16.5 51q0 32 -17 53.5t-43 28.5q-20 5 -47 5h-109z" />
    <glyph glyph-name="uni044E.loclBGR" horiz-adv-x="848" 
d="M746 466q66 -78 66 -196q0 -113 -66 -195q-75 -90 -204 -90q-97 0 -164.5 60t-83.5 165h-104v-210h-120v720h120v-390h104q16 106 84 165.5t164 59.5q130 0 204 -89zM651 148q33 44 33 122q0 79 -33 123q-36 49 -109 49q-70 0 -105.5 -46t-35.5 -126t36 -126t105 -46
q73 0 109 50z" />
    <glyph glyph-name="uni0431.loclSRB" horiz-adv-x="598" 
d="M313 506q118 0 184 -82q61 -73 61 -181q3 -108 -70 -186q-75 -75 -193 -72q-116 0 -188 83q-60 69 -65 183q-6 112 8 210q21 138 114 204q79 55 230 55q56 0 120 -11v-111q-68 9 -120 10q-121 2 -165 -31q-50 -34 -62 -132q61 59 146 61zM300 399q-64 0 -99 -42
q-32 -36 -32 -105q0 -71 32 -107q34 -41 99 -41t99 41q32 36 32 106t-32 106q-34 42 -99 42z" />
    <glyph glyph-name="zero.tf" horiz-adv-x="620" 
d="M310 -14q125 0 199 84q35 43 47.5 86t12.5 105v199q0 62 -12.5 105t-48.5 87q-35 40 -87.5 62t-110.5 21q-122 3 -198 -83q-35 -42 -48 -85.5t-13 -106.5v-199q0 -61 13 -105.5t48 -85.5q73 -84 198 -84zM310 621q35 1 67 -17.5t50 -48.5q19 -32 19 -95v-199
q0 -67 -21 -99q-20 -29 -50.5 -46t-64.5 -16q-35 -1 -66 16.5t-49 46.5q-21 30 -21 98v199q0 61 18 94q18 31 50 49.5t68 17.5z" />
    <glyph glyph-name="one.tf" horiz-adv-x="620" 
d="M289 720h123v-720h-123v589l-135 -83v133z" />
    <glyph glyph-name="two.tf" horiz-adv-x="620" 
d="M65 497q0 112 81 182q66 56 171 56q111 0 182 -77q60 -63 60 -163q0 -50 -15.5 -87.5t-38 -62.5t-70.5 -67l-185 -163h309v-114h-495v105l308 275q64 56 64 115q0 53 -32 86q-33 39 -89 39q-52 0 -86 -31q-42 -38 -40 -93h-124z" />
    <glyph glyph-name="three.tf" horiz-adv-x="620" 
d="M495 373q49 -65 46 -148q-3 -110 -78 -177q-67 -59 -167 -61q-95 -3 -168 62q-49 43 -68 109l116 32q12 -36 35 -57q35 -33 84 -33q52 2 85 33q39 36 39 92q0 58 -38 93q-33 33 -86 33q-30 0 -62 -17l-55 95l207 177h-297v114h441v-114l-162 -156q77 -16 128 -77z" />
    <glyph glyph-name="four.tf" horiz-adv-x="620" 
d="M504 232h67v-113h-67v-119h-122v119h-319v113l230 488h138l-231 -488h182v187h122v-187z" />
    <glyph glyph-name="five.tf" horiz-adv-x="620" 
d="M114 720h391v-113h-284l-11 -178q51 33 112 33q90 0 157 -58q75 -67 75 -177q-2 -101 -75 -173q-70 -65 -174 -67q-99 -3 -171 66q-49 45 -67 110l116 31q10 -36 35 -58q37 -35 87 -35q52 0 90 36q37 37 37 90q0 54 -39 91q-35 33 -88 35q-68 1 -110 -47l-103 33z" />
    <glyph glyph-name="six.tf" horiz-adv-x="620" 
d="M514 658l-87 -85q-42 48 -104 48q-38 0 -71.5 -20.5t-49.5 -54.5q-18 -32 -18 -89v-50q62 56 144 56q90 0 159 -60q74 -71 72 -176q-2 -103 -75 -173q-72 -70 -174 -67q-102 -3 -174 69q-43 42 -59 90.5t-16 117.5v193q0 121 63 194q70 81 199 83q115 2 191 -76zM310 100
q54 0 91 39q36 34 36 88q0 53 -37 90q-39 37 -89 37q-53 0 -91 -38q-36 -36 -36 -89q0 -54 36 -88q36 -37 90 -39z" />
    <glyph glyph-name="seven.tf" horiz-adv-x="620" 
d="M157 0l247 606h-314v114h443v-114l-246 -606h-130z" />
    <glyph glyph-name="eight.tf" horiz-adv-x="620" 
d="M82 531q5 105 77 159q57 45 150 45q94 0 152 -45q75 -57 75 -159q0 -55 -25 -94q-12 -25 -37 -50q38 -32 56 -72q28 -48 26 -102q-3 -111 -77 -172q-66 -56 -170 -56q-103 0 -168 56q-77 65 -77 172q-2 53 25 102q20 42 56 72q-25 25 -38 50q-27 47 -25 94zM309 622
q-47 -2 -72 -24q-27 -23 -27 -67q-2 -43 27 -66q26 -23 72 -23q47 0 74 23q24 20 26 66q2 43 -27 67q-29 26 -73 24zM309 327q-56 0 -87 -30t-31 -84t31 -84q33 -30 87 -30q55 0 87 30q32 29 32 84t-32 84q-30 30 -87 30z" />
    <glyph glyph-name="nine.tf" horiz-adv-x="620" 
d="M106 63l87 84q42 -48 104 -48q39 0 72.5 20.5t48.5 54.5q18 30 18 89v50q-61 -55 -143 -55q-92 0 -160 60q-74 69 -72 175q2 103 75 173t174 67q102 3 174 -69q43 -42 59 -90.5t16 -117.5v-193q0 -121 -63 -194q-70 -81 -199 -83q-115 -2 -191 77zM310 620q-52 1 -91 -39
q-36 -34 -36 -88q0 -51 37 -90q39 -37 89 -37q53 0 91 38q36 36 36 89t-36 89q-35 36 -90 38z" />
    <glyph glyph-name="colon.case" horiz-adv-x="343" 
d="M111 595h123v-123h-123v123zM110 248h123v-123h-123v123z" />
    <glyph glyph-name="exclamdown.case" horiz-adv-x="360" 
d="M120 609v111h120v-111h-120zM120 0h120v540h-120v-540z" />
    <glyph glyph-name="questiondown.case" horiz-adv-x="553" 
d="M352 720v-132h-127v132h127zM50 186q0 91 79 172l38.5 37.5t38.5 44.5q13 22 16 37t3 48h128q0 -76 -29 -127q-12 -23 -28 -39.5t-41 -37t-44 -39.5q-33 -38 -33 -93q0 -36 16 -56q25 -33 83 -33q47 0 71 21q30 24 28 68h127q-10 -108 -86 -161q-57 -42 -136 -42
q-125 0 -185 73q-46 54 -46 127z" />
    <glyph glyph-name="periodcentered.case" horiz-adv-x="627" 
d="M315 287q-32 0 -53.5 21t-21.5 52t21.5 52t53.5 21q30 0 51 -21t21 -52t-21 -52t-51 -21z" />
    <glyph glyph-name="parenleft.case" horiz-adv-x="453" 
d="M412 814l-89 66q-87 -101 -136 -240.5t-47 -279.5q-2 -140 47 -279.5t136 -240.5l89 66q-161 194 -163 454q2 260 163 454z" />
    <glyph glyph-name="parenright.case" horiz-adv-x="453" 
d="M41 814q161 -192 163 -454q-2 -260 -163 -454l89 -66q87 101 136 240.5t47 279.5q2 141 -46.5 280t-136.5 240z" />
    <glyph glyph-name="braceleft.case" horiz-adv-x="449" 
d="M408 -195v113h-59q-15 0 -25 10.5t-10 25.5v292q0 46 -27 85l-22 29l22 29q27 39 27 85v292q0 14 10 24.5t25 10.5h59v114h-68q-64 0 -102 -38t-38 -102v-301q0 -10 -6 -19l-44 -63q-21 -31 0 -64l44 -63q6 -7 6 -19v-301q0 -65 38 -102.5t102 -37.5h68z" />
    <glyph glyph-name="braceright.case" horiz-adv-x="449" 
d="M41 -195h68q65 0 102.5 37.5t37.5 102.5v301q0 12 6 19l44 63q23 33 0 64l-44 63q-6 9 -6 19v301q0 64 -38 102t-102 38h-68v-114h60q14 0 24 -10.5t10 -24.5v-292q0 -45 28 -85l21 -29l-21 -29q-28 -40 -28 -85v-292q0 -15 -10 -25.5t-24 -10.5h-60v-113z" />
    <glyph glyph-name="bracketleft.case" horiz-adv-x="424" 
d="M359 808h-112v-896h112v-107h-219v1110h219v-107z" />
    <glyph glyph-name="bracketright.case" horiz-adv-x="424" 
d="M284 915v-1110h-218v107h111v896h-111v107h218z" />
    <glyph glyph-name="hyphen.case" horiz-adv-x="420" 
d="M60 408h300v-95h-300v95z" />
    <glyph glyph-name="endash.case" horiz-adv-x="540" 
d="M60 408h420v-95h-420v95z" />
    <glyph glyph-name="emdash.case" horiz-adv-x="780" 
d="M60 408h660v-95h-660v95z" />
    <glyph glyph-name="guillemotleft.case" horiz-adv-x="586" 
d="M256 139l64 50l-136 171l136 171l-64 51l-176 -222zM460 139l65 50l-137 171l137 171l-65 51l-176 -222z" />
    <glyph glyph-name="guillemotright.case" horiz-adv-x="586" 
d="M126 139l176 221l-176 222l-64 -51l136 -171l-136 -171zM330 139l176 221l-176 222l-64 -51l136 -171l-136 -171z" />
    <glyph glyph-name="guilsinglleft.case" horiz-adv-x="637" 
d="M380 120l-240 240l240 240l57 -58l-182 -182l182 -182z" />
    <glyph glyph-name="guilsinglright.case" horiz-adv-x="637" 
d="M257 120l-57 58l182 182l-182 182l57 58l240 -240z" />
    <glyph glyph-name="greater.case" horiz-adv-x="637" 
d="M257 120l-57 58l182 182l-182 182l57 58l240 -240z" />
    <glyph glyph-name="less.case" horiz-adv-x="637" 
d="M380 120l-240 240l240 240l57 -58l-182 -182l182 -182z" />
    <glyph glyph-name="arrowright.case" horiz-adv-x="1012" 
d="M632 563l240 -241l-240 -240l-57 58l135 135l-570 1v94h569l-134 135z" />
    <glyph glyph-name="arrowleft.case" horiz-adv-x="1012" 
d="M872 370v-94l-570 -1l135 -135l-57 -58l-240 240l240 241l57 -58l-134 -135h569z" />
    <glyph glyph-name="at.case" horiz-adv-x="916" 
d="M836 360q-3 -121 -66 -175q-36 -33 -88 -33q-49 0 -86 24q-24 14 -37 35q-46 -35 -111 -35q-72 0 -121 43q-57 50 -60 141q3 90 60 141q52 43 123 43q59 0 102 -31v17h74l-1 -213q0 -36 13 -53q12 -17 40 -17q22 0 35 18q23 30 21 95q2 104 -46 175q-36 52 -97 78.5
t-132 26.5q-110 0 -185 -57q-49 -36 -72 -98.5t-21 -135.5q3 -114 60 -180q76 -89 220 -89q67 0 120 23l32 -90q-71 -28 -156 -28q-190 0 -293 123q-81 93 -84 238q-4 94 31.5 179t104.5 136q97 74 235 74q213 0 317 -144q65 -94 68 -231zM536 360q0 35 -11 56
q-19 33 -67 33q-39 1 -65 -21q-26 -26 -24 -68q-2 -43 24 -67q23 -22 62 -22q51 0 70 33q11 21 11 56z" />
    <glyph glyph-name="copyright.case" horiz-adv-x="906" 
d="M453 22q172 0 292.5 121t120.5 292t-120.5 292t-292.5 121q-171 0 -292 -121t-121 -292t121 -292t292 -121zM453 135q-125 0 -212.5 87.5t-87.5 212.5t87.5 212.5t212.5 87.5t212.5 -87.5t87.5 -212.5t-87.5 -212.5t-212.5 -87.5zM642 519l-92 -25q-11 32 -33 49
q-23 20 -56 20q-48 0 -76 -37q-24 -32 -24 -91q0 -58 24 -90q27 -36 76 -36q37 0 58 17q18 15 29 46l94 -20q-20 -63 -66 -96q-48 -34 -115 -34q-98 0 -149 66q-49 62 -49 147q0 90 49 146q56 68 151 68q58 0 104 -27q59 -36 75 -103z" />
    </font>
</defs>
</svg>
